<svg xmlns="http://www.w3.org/2000/svg" viewBox="0 0 250 250"><title>Asset 4</title><g id="Layer_2" data-name="Layer 2"><g id="Layer_1-2" data-name="Layer 1"><rect width="250" height="250" style="fill:#fff"/><rect x="61" y="106.27" width="45.97" height="45.97" style="fill:#fff"/><path d="M106,107.27v44H62v-44h44m2-2H60v48h48v-48Z"/><path d="M143,152.24v-46h46v39a7,7,0,0,1-7,7Z" style="fill:#fff"/><path d="M188,107.27v38a6,6,0,0,1-6,6H144v-44h44m2-2H142v48h40a8,8,0,0,0,8-8v-40Z"/><path d="M61,81.72v-39a7,7,0,0,1,7-7H181.67a7,7,0,0,1,7,7v39Z" style="fill:#fff"/><path d="M181.67,36.76a6,6,0,0,1,6,6v38H62v-38a6,6,0,0,1,6-6H181.67m0-2H68a8,8,0,0,0-8,8v40H189.67v-40a8,8,0,0,0-8-8Z"/><rect x="142.8" y="87.64" width="45.97" height="12.83" style="fill:#fff"/><path d="M187.77,88.64V99.47h-44V88.64h44m2-2h-48v14.83h48V86.64Z"/><rect x="61" y="87.64" width="45.97" height="12.83" style="fill:#fff"/><path d="M106,88.64V99.47H62V88.64h44m2-2H60v14.83h48V86.64Z"/><rect x="113.08" y="106.55" width="24.03" height="45.97" style="fill:#fff"/><path d="M136.12,107.55v44h-22v-44h22m2-2h-26v48h26v-48Z"/><path d="M149.8,172.42a7,7,0,0,1-7-7v-7.15h46v7.15a7,7,0,0,1-7,7Z" style="fill:#fff"/><path d="M187.77,159.28v6.15a6,6,0,0,1-6,6h-32a6,6,0,0,1-6-6v-6.15h44m2-2h-48v8.15a8,8,0,0,0,8,8h32a8,8,0,0,0,8-8v-8.15Z"/><path d="M68,172.42a7,7,0,0,1-7-7v-7.15h46v7.15a7,7,0,0,1-7,7Z" style="fill:#fff"/><path d="M106,159.28v6.15a6,6,0,0,1-6,6H68a6,6,0,0,1-6-6v-6.15h44m2-2H60v8.15a8,8,0,0,0,8,8h32a8,8,0,0,0,8-8v-8.15Z"/><path d="M73.17,211.68v2.07q0,5.49-5.18,5.49H65.21q-5.18,0-5.18-5.49V192.42q0-5.49,5.18-5.49H68q5.18,0,5.18,5.49v3.65H68.85v-3.33a1.69,1.69,0,0,0-1.94-1.89h-.85q-1.71,0-1.71,1.89v20.71q0,1.89,1.71,1.89h1.08q1.71,0,1.71-1.89v-1.76Z"/><path d="M81.55,219.24q-5.22,0-5.22-5.49V192.46q0-5.54,5.18-5.54h4.14q5.18,0,5.18,5.54v21.29q0,5.49-5.22,5.49Zm1-3.92h2.2q1.71,0,1.71-1.89V192.73a1.69,1.69,0,0,0-1.93-1.89h-2a1.67,1.67,0,0,0-1.89,1.89v20.71A1.69,1.69,0,0,0,82.58,215.33Z"/><path d="M103.42,205.92l4-19h4.77v32.32h-4.32l.45-21.15-3.24,15.3h-3.33l-3.24-15.3L99,219.24H94.64V186.93h4.77Z"/><path d="M130.29,186.93v26.2q0,6.12-5.22,6.12h-3.65q-5.18,0-5.18-6.17V186.93h4.32v26.29q0,2.12,1.89,2.12h1.76q1.75,0,1.75-2.12V186.93Z"/><path d="M143.3,202.55V186.93h4.32v32.32H143.3v-6.44l-4.64-14.72v21.15h-4.32V186.93h4.32Z"/><path d="M151.67,219.24V186.93H156v32.32Z"/><path d="M173,211.68v2.07q0,5.49-5.18,5.49H165q-5.18,0-5.18-5.49V192.42q0-5.49,5.18-5.49h2.79q5.18,0,5.18,5.49v3.65h-4.32v-3.33a1.69,1.69,0,0,0-1.94-1.89h-.85q-1.71,0-1.71,1.89v20.71q0,1.89,1.71,1.89h1.08q1.71,0,1.71-1.89v-1.76Z"/><path d="M180.43,219.24h-4.32V192.46q0-5.54,5.18-5.54h3.24q5.18,0,5.18,5.54v26.78h-4.32V207.41h-5Zm5-15.75V192.73a1.67,1.67,0,0,0-1.89-1.89h-1.17a1.67,1.67,0,0,0-1.89,1.89v10.76Z"/></g></g></svg>