<?xml version="1.0" encoding="utf-8"?>
<!-- Generator: Adobe Illustrator 21.1.0, SVG Export Plug-In . SVG Version: 6.00 Build 0)  -->
<svg version="1.1" id="Layer_1" xmlns="http://www.w3.org/2000/svg" xmlns:xlink="http://www.w3.org/1999/xlink" x="0px" y="0px"
	 viewBox="0 0 273 138.7" style="enable-background:new 0 0 273 138.7;" xml:space="preserve">
<style type="text/css">
	.st0{fill:#FFFFFF;}
	.st1{fill:none;stroke:#FFFFFF;stroke-width:1.5937;}
</style>
<polygon class="st0" points="127.7,0.1 127.7,79.8 180,79.8 180,98.2 108.1,98.2 108.1,0.1 "/>
<path class="st0" d="M227.2,78.6c17.4-0.1,26.1-9.8,26.2-29.4c-0.1-19.6-8.7-29.4-26.2-29.4h-18.2v58.9H227.2z M189.5,98.1V0h37.8
	C257.7,0,273,16.4,273,49s-15.3,49-45.8,49H189.5z"/>
<polygon class="st0" points="0,113 3.5,113 3.5,129.4 11.5,129.4 11.5,132.2 0,132.2 "/>
<path class="st0" d="M13.6,117.8H17v14.5h-3.4V117.8z M13.2,113.3c0-1.1,0.9-1.9,2.1-1.9c1.2,0,2.1,0.8,2.1,1.9
	c0,1.1-0.9,1.9-2.1,1.9C14.1,115.2,13.2,114.4,13.2,113.3z"/>
<path class="st0" d="M20.5,117.8h2.8l0.2,1.9h0.1c1.3-1.3,2.8-2.3,4.7-2.3c3.1,0,4.5,2.1,4.5,5.8v9h-3.4v-8.6c0-2.4-0.6-3.3-2.2-3.3
	c-1.3,0-2.1,0.6-3.3,1.8v10.1h-3.4L20.5,117.8L20.5,117.8z"/>
<polygon class="st0" points="36.1,111.4 39.5,111.4 39.5,124.4 39.6,124.4 44.9,117.8 48.6,117.8 43.6,123.7 49.1,132.2 45.4,132.2 
	41.7,126 39.5,128.6 39.5,132.2 36.1,132.2 "/>
<path class="st0" d="M58.7,123.7c0-2.3-1-3.7-3-3.7c-1.7,0-3.2,1.3-3.4,3.7H58.7z M55.6,117.4c3.9,0,6,2.8,6,6.9
	c0,0.6-0.1,1.2-0.2,1.6h-9.1c0.3,2.6,1.9,4.1,4.2,4.1c1.2,0,2.3-0.4,3.4-1l1.1,2.2c-1.4,0.9-3.1,1.6-5,1.6c-4,0-7.1-2.8-7.1-7.6
	C49,120.2,52.3,117.4,55.6,117.4z"/>
<path class="st0" d="M70,129.8c1.1,0,2.1-0.5,3-1.6v-6.7c-1-0.9-2-1.2-3-1.2c-1.8,0-3.4,1.8-3.4,4.8S67.8,129.8,70,129.8z
	 M69.3,117.4c1.7,0,2.6,0.6,3.8,1.6l-0.1-2.3v-5.3h3.4v20.8h-2.8l-0.2-1.6h-0.1c-1,1-2.6,1.9-4.1,1.9c-3.6,0-5.9-2.8-5.9-7.6
	C63.2,120.2,66.1,117.4,69.3,117.4z"/>
<path class="st0" d="M90.1,129.4c3.9,0,6.2-2.2,6.2-7c0-4.7-2.2-6.8-6.2-6.8h-1.4v13.8H90.1z M85.2,113h5.1c5.9,0,9.4,3.2,9.4,9.5
	c0,6.4-3.5,9.7-9.2,9.7h-5.3V113z"/>
<path class="st0" d="M107.2,129.9c1.2,0,2.1-0.6,3.1-1.6v-3.2c-3.9,0.5-5.2,1.5-5.2,3C105.2,129.4,106,129.9,107.2,129.9z
	 M110.4,123c0-1.5-0.6-2.8-2.6-2.8c-1.4,0-2.8,0.6-4.1,1.4l-1.2-2.2c1.6-1,3.6-1.9,5.9-1.9c3.6,0,5.4,2.2,5.4,6.2v8.6h-2.8l-0.2-1.6
	h-0.1c-1.3,1.1-2.8,1.9-4.5,1.9c-2.6,0-4.3-1.7-4.3-4.2C101.9,125.2,104.4,123.6,110.4,123z"/>
<path class="st0" d="M117.5,120.4h-2.1v-2.6l2.2-0.2l0.4-3.9h2.8v3.9h3.7v2.6h-3.7v6.9c0,1.7,0.6,2.6,2,2.6c0.5,0,1.1-0.2,1.5-0.3
	l0.6,2.5c-0.8,0.2-1.8,0.6-3,0.6c-3.4,0-4.6-2.1-4.6-5.3L117.5,120.4L117.5,120.4z"/>
<path class="st0" d="M131.1,129.9c1.2,0,2.1-0.6,3.1-1.6v-3.2c-3.9,0.5-5.2,1.5-5.2,3C129,129.4,129.9,129.9,131.1,129.9z
	 M134.2,123c0-1.5-0.6-2.8-2.6-2.8c-1.4,0-2.8,0.6-4.1,1.4l-1.2-2.2c1.6-1,3.6-1.9,5.9-1.9c3.6,0,5.4,2.2,5.4,6.2v8.6h-2.8l-0.2-1.6
	h-0.1c-1.3,1.1-2.8,1.9-4.5,1.9c-2.6,0-4.3-1.7-4.3-4.2C125.7,125.2,128.3,123.6,134.2,123z"/>
<polygon class="st0" points="146.4,113 158,113 158,115.8 149.7,115.8 149.7,121.3 156.7,121.3 156.7,124.2 149.7,124.2 
	149.7,132.2 146.3,132.2 146.3,113 "/>
<path class="st0" d="M159.6,117.8h2.8l0.2,2.6h0.1c1-1.9,2.6-2.9,4.1-2.9c0.7,0,1.2,0.1,1.7,0.3l-0.6,3c-0.5-0.2-0.9-0.2-1.5-0.2
	c-1.1,0-2.6,0.8-3.4,3v8.8h-3.4V117.8z"/>
<path class="st0" d="M173.6,129.9c1.2,0,2.1-0.6,3.1-1.6v-3.2c-3.9,0.5-5.2,1.5-5.2,3C171.6,129.4,172.4,129.9,173.6,129.9z
	 M176.8,123c0-1.5-0.6-2.8-2.6-2.8c-1.4,0-2.8,0.6-4.1,1.4l-1.2-2.2c1.6-1,3.6-1.9,5.9-1.9c3.6,0,5.4,2.2,5.4,6.2v8.6h-2.8l-0.2-1.6
	H177c-1.3,1.1-2.8,1.9-4.5,1.9c-2.6,0-4.3-1.7-4.3-4.2C168.3,125.2,170.8,123.6,176.8,123z"/>
<path class="st0" d="M191.1,122.6c0-1.8-1.1-2.9-2.5-2.9c-1.4,0-2.6,1-2.6,2.9c0,1.8,1.1,2.9,2.6,2.9
	C190,125.5,191.1,124.4,191.1,122.6z M189,136.4c2.3,0,3.9-1.1,3.9-2.3c0-1.1-0.9-1.4-2.6-1.4h-2c-0.8,0-1.4-0.1-2-0.2
	c-0.8,0.6-1.1,1.2-1.1,1.9C185.2,135.6,186.7,136.4,189,136.4z M184.5,131.8L184.5,131.8c-0.7-0.6-1.3-1.3-1.3-2.5
	c0-1.1,0.8-2.1,1.6-2.6v-0.1c-1-0.7-1.9-2.2-1.9-3.8c0-3.4,2.6-5.2,5.7-5.2c0.8,0,1.5,0.2,2.1,0.3h5.2v2.5h-2.6
	c0.5,0.6,0.8,1.4,0.8,2.5c0,3.2-2.4,4.9-5.4,4.9c-0.6,0-1.4-0.1-2-0.4c-0.5,0.4-0.7,0.7-0.7,1.4c0,0.8,0.6,1.4,2.3,1.4h2.6
	c3.4,0,5.3,1,5.3,3.6c0,2.9-3,5.1-7.7,5.1c-3.4,0-6-1.2-6-3.8C182.4,133.6,183.2,132.6,184.5,131.8z"/>
<path class="st0" d="M197.9,117.8h2.8l0.2,2h0.1c1.2-1.3,2.6-2.3,4.4-2.3c2.1,0,3.4,1,4,2.6c1.4-1.4,2.8-2.6,4.6-2.6
	c3,0,4.5,2.1,4.5,5.8v9h-3.4v-8.6c0-2.4-0.7-3.3-2.2-3.3c-0.9,0-1.9,0.6-3,1.8v10.1h-3.4v-8.6c0-2.4-0.7-3.3-2.2-3.3
	c-0.9,0-1.9,0.6-3,1.8v10.1h-3.4L197.9,117.8L197.9,117.8z"/>
<path class="st0" d="M230.6,123.7c0-2.3-1-3.7-3-3.7c-1.7,0-3.2,1.3-3.4,3.7H230.6z M227.6,117.4c3.9,0,6,2.8,6,6.9
	c0,0.6-0.1,1.2-0.2,1.6h-9.2c0.3,2.6,1.9,4.1,4.2,4.1c1.2,0,2.3-0.4,3.4-1l1.1,2.2c-1.4,0.9-3.1,1.6-5,1.6c-4,0-7.1-2.8-7.1-7.6
	C220.9,120.2,224.1,117.4,227.6,117.4z"/>
<path class="st0" d="M235.9,117.8h2.8l0.2,1.9h0.1c1.3-1.3,2.8-2.3,4.7-2.3c3.1,0,4.5,2.1,4.5,5.8v9h-3.4v-8.6
	c0-2.4-0.6-3.3-2.2-3.3c-1.3,0-2.1,0.6-3.3,1.8v10.1h-3.4V117.8z"/>
<path class="st0" d="M252,120.4H250v-2.6l2.2-0.2l0.4-3.9h2.8v3.9h3.7v2.6h-3.7v6.9c0,1.7,0.6,2.6,2,2.6c0.5,0,1.1-0.2,1.5-0.3
	l0.6,2.5c-0.8,0.2-1.8,0.6-3,0.6c-3.4,0-4.6-2.1-4.6-5.3L252,120.4L252,120.4z"/>
<path class="st0" d="M261.5,128.4c1.3,1,2.6,1.6,4,1.6c1.6,0,2.3-0.7,2.3-1.8c0-1.2-1.6-1.8-3.1-2.3c-1.9-0.7-4.1-1.8-4.1-4.2
	c0-2.6,2-4.3,5.3-4.3c2,0,3.6,0.8,4.8,1.8l-1.6,2.1c-1-0.7-2-1.2-3.2-1.2c-1.4,0-2.1,0.6-2.1,1.6c0,1.1,1.4,1.6,3,2.2
	c2,0.7,4.2,1.7,4.2,4.4c0,2.5-2,4.5-5.6,4.5c-2,0-4.1-0.9-5.4-2L261.5,128.4z"/>
<path class="st1" d="M55.8,60.3l4.9-22.6H41l-5,22.6H55.8z M14.2,75.2H0.9l1.8-14.8h14.7l5-22.6H8.3L10,23.4h15.5l4.9-22.3h18.6
	l-4.9,22.3h19.6l4.8-22.3h18.5l-4.9,22.3h14.6L95,37.7H79.1l-5,22.6H89l-1.8,14.8H70.8l-5,23.1H47.7l5-23.1h-20l-5,23.1H9.2
	L14.2,75.2z"/>
</svg>
