<?xml version="1.0" encoding="utf-8"?>
<!-- Generator: Adobe Illustrator 16.0.0, SVG Export Plug-In . SVG Version: 6.00 Build 0)  -->
<!DOCTYPE svg PUBLIC "-//W3C//DTD SVG 1.1//EN" "http://www.w3.org/Graphics/SVG/1.1/DTD/svg11.dtd">
<svg version="1.1" id="Layer_1" xmlns="http://www.w3.org/2000/svg" xmlns:xlink="http://www.w3.org/1999/xlink" x="0px" y="0px"
	 width="388px" height="204.5px" viewBox="0 0 388 204.5" enable-background="new 0 0 388 204.5" xml:space="preserve">
<rect x="93.926" y="11.462" fill="#9C1C1F" width="184.793" height="181.558"/>
<g>
	<path fill="#FFFFFF" d="M110.793,20.918c-0.854,0-1.516,0.321-1.985,0.963s-0.703,1.537-0.703,2.684
		c0,2.388,0.896,3.582,2.688,3.582c0.752,0,1.663-0.188,2.732-0.564v1.904c-0.879,0.366-1.86,0.549-2.944,0.549
		c-1.558,0-2.749-0.473-3.574-1.417c-0.825-0.945-1.238-2.301-1.238-4.069c0-1.113,0.203-2.088,0.608-2.926
		c0.405-0.837,0.987-1.479,1.747-1.926c0.759-0.447,1.649-0.67,2.669-0.67c1.04,0,2.085,0.251,3.135,0.754l-0.732,1.846
		c-0.4-0.19-0.803-0.356-1.208-0.498S111.184,20.918,110.793,20.918z"/>
	<path fill="#FFFFFF" d="M123.069,25.782c0,1.333-0.352,2.375-1.055,3.127s-1.682,1.128-2.937,1.128
		c-0.786,0-1.479-0.172-2.08-0.517c-0.601-0.344-1.062-0.838-1.384-1.483s-0.483-1.396-0.483-2.256c0-1.338,0.349-2.378,1.047-3.12
		s1.68-1.113,2.944-1.113c0.786,0,1.479,0.171,2.08,0.513s1.062,0.833,1.384,1.472S123.069,24.922,123.069,25.782z M117.407,25.782
		c0,0.811,0.133,1.423,0.399,1.838s0.7,0.623,1.3,0.623c0.596,0,1.024-0.206,1.286-0.619c0.261-0.413,0.392-1.027,0.392-1.842
		c0-0.811-0.132-1.418-0.396-1.824s-0.696-0.608-1.296-0.608c-0.596,0-1.025,0.202-1.289,0.604
		C117.539,24.357,117.407,24.966,117.407,25.782z"/>
	<path fill="#FFFFFF" d="M132.246,29.891h-2.234v-4.783c0-0.591-0.099-1.034-0.297-1.33c-0.197-0.295-0.509-0.443-0.934-0.443
		c-0.571,0-0.986,0.21-1.245,0.63s-0.388,1.111-0.388,2.073v3.853h-2.234v-8.188h1.707l0.3,1.047h0.125
		c0.22-0.376,0.537-0.67,0.952-0.882c0.415-0.213,0.891-0.319,1.428-0.319c1.226,0,2.056,0.4,2.49,1.201h0.198
		c0.22-0.381,0.543-0.676,0.97-0.886s0.91-0.315,1.447-0.315c0.928,0,1.629,0.238,2.106,0.714c0.476,0.476,0.714,1.239,0.714,2.289
		v5.339h-2.241v-4.783c0-0.591-0.099-1.034-0.297-1.33c-0.197-0.295-0.509-0.443-0.934-0.443c-0.547,0-0.956,0.195-1.227,0.586
		c-0.271,0.391-0.407,1.011-0.407,1.86V29.891z"/>
	<path fill="#FFFFFF" d="M145.444,29.891l-0.3-1.047h-0.117c-0.239,0.381-0.579,0.675-1.018,0.882
		c-0.439,0.208-0.94,0.312-1.501,0.312c-0.962,0-1.687-0.257-2.175-0.772s-0.732-1.256-0.732-2.223v-5.339h2.234v4.783
		c0,0.591,0.105,1.034,0.315,1.33s0.544,0.443,1.003,0.443c0.625,0,1.077-0.208,1.355-0.626c0.278-0.417,0.417-1.109,0.417-2.076
		v-3.853h2.234v8.188H145.444z"/>
	<path fill="#FFFFFF" d="M157.061,29.891h-2.234v-4.783c0-0.591-0.105-1.034-0.315-1.33c-0.21-0.295-0.544-0.443-1.003-0.443
		c-0.625,0-1.077,0.208-1.355,0.626c-0.278,0.417-0.417,1.109-0.417,2.076v3.853h-2.234v-8.188h1.707l0.3,1.047h0.125
		c0.249-0.396,0.592-0.694,1.029-0.897s0.934-0.304,1.491-0.304c0.952,0,1.675,0.258,2.168,0.773s0.74,1.258,0.74,2.23V29.891z"/>
	<path fill="#FFFFFF" d="M159.265,19.585c0-0.728,0.405-1.091,1.216-1.091s1.216,0.364,1.216,1.091c0,0.347-0.102,0.617-0.304,0.809
		c-0.203,0.193-0.506,0.29-0.912,0.29C159.67,20.684,159.265,20.318,159.265,19.585z M161.594,29.891h-2.234v-8.188h2.234V29.891z"
		/>
	<path fill="#FFFFFF" d="M167.263,30.037c-2.549,0-3.823-1.399-3.823-4.197c0-1.392,0.347-2.455,1.04-3.19
		c0.693-0.734,1.687-1.102,2.981-1.102c0.947,0,1.797,0.186,2.549,0.557l-0.659,1.729c-0.352-0.142-0.679-0.257-0.981-0.348
		c-0.303-0.09-0.605-0.135-0.908-0.135c-1.162,0-1.743,0.825-1.743,2.476c0,1.602,0.581,2.402,1.743,2.402
		c0.43,0,0.828-0.057,1.194-0.172c0.366-0.114,0.732-0.294,1.099-0.538v1.912c-0.361,0.229-0.727,0.388-1.095,0.476
		C168.29,29.993,167.825,30.037,167.263,30.037z"/>
	<path fill="#FFFFFF" d="M176.851,29.891l-0.432-1.113h-0.059c-0.376,0.474-0.763,0.802-1.161,0.985
		c-0.398,0.183-0.917,0.274-1.557,0.274c-0.786,0-1.405-0.225-1.856-0.674c-0.452-0.449-0.678-1.089-0.678-1.919
		c0-0.869,0.304-1.51,0.912-1.923c0.607-0.412,1.524-0.641,2.75-0.685l1.421-0.044v-0.359c0-0.83-0.425-1.245-1.274-1.245
		c-0.654,0-1.423,0.198-2.307,0.593l-0.74-1.509c0.942-0.493,1.987-0.74,3.135-0.74c1.099,0,1.941,0.239,2.527,0.718
		s0.879,1.206,0.879,2.183v5.457H176.851z M176.191,26.097l-0.864,0.029c-0.649,0.02-1.133,0.137-1.45,0.352
		s-0.476,0.542-0.476,0.981c0,0.63,0.361,0.945,1.084,0.945c0.518,0,0.931-0.149,1.242-0.447c0.31-0.298,0.465-0.693,0.465-1.187
		V26.097z"/>
	<path fill="#FFFFFF" d="M191.338,29.891l-0.776-2.549h-3.904l-0.776,2.549h-2.446l3.779-10.752h2.776l3.794,10.752H191.338z
		 M190.02,25.438c-0.718-2.31-1.122-3.616-1.212-3.918s-0.155-0.542-0.194-0.718c-0.161,0.625-0.623,2.17-1.384,4.636H190.02z"/>
	<path fill="#FFFFFF" d="M200.669,27.459c0,0.84-0.292,1.479-0.875,1.919c-0.584,0.439-1.457,0.659-2.619,0.659
		c-0.596,0-1.104-0.04-1.523-0.121c-0.42-0.08-0.813-0.199-1.179-0.355v-1.846c0.415,0.195,0.883,0.359,1.402,0.491
		c0.521,0.132,0.978,0.198,1.374,0.198c0.811,0,1.216-0.234,1.216-0.703c0-0.176-0.054-0.319-0.161-0.428
		c-0.107-0.11-0.293-0.234-0.557-0.374c-0.264-0.139-0.615-0.301-1.055-0.487c-0.63-0.264-1.093-0.508-1.388-0.732
		s-0.51-0.482-0.645-0.773c-0.134-0.29-0.201-0.648-0.201-1.073c0-0.728,0.282-1.29,0.846-1.688
		c0.564-0.398,1.364-0.597,2.399-0.597c0.986,0,1.946,0.215,2.878,0.645l-0.674,1.611c-0.41-0.176-0.793-0.32-1.15-0.432
		s-0.72-0.168-1.091-0.168c-0.659,0-0.989,0.178-0.989,0.535c0,0.2,0.106,0.374,0.319,0.52c0.212,0.146,0.677,0.364,1.395,0.652
		c0.64,0.259,1.108,0.5,1.406,0.725s0.518,0.483,0.659,0.776S200.669,27.054,200.669,27.459z"/>
	<path fill="#FFFFFF" d="M208.125,27.459c0,0.84-0.292,1.479-0.875,1.919c-0.584,0.439-1.457,0.659-2.619,0.659
		c-0.596,0-1.104-0.04-1.523-0.121c-0.42-0.08-0.813-0.199-1.179-0.355v-1.846c0.415,0.195,0.883,0.359,1.402,0.491
		c0.521,0.132,0.978,0.198,1.374,0.198c0.811,0,1.216-0.234,1.216-0.703c0-0.176-0.054-0.319-0.161-0.428
		c-0.107-0.11-0.293-0.234-0.557-0.374c-0.264-0.139-0.615-0.301-1.055-0.487c-0.63-0.264-1.093-0.508-1.388-0.732
		s-0.51-0.482-0.645-0.773c-0.134-0.29-0.201-0.648-0.201-1.073c0-0.728,0.282-1.29,0.846-1.688
		c0.564-0.398,1.364-0.597,2.399-0.597c0.986,0,1.946,0.215,2.878,0.645l-0.674,1.611c-0.41-0.176-0.793-0.32-1.15-0.432
		s-0.72-0.168-1.091-0.168c-0.659,0-0.989,0.178-0.989,0.535c0,0.2,0.106,0.374,0.319,0.52c0.212,0.146,0.677,0.364,1.395,0.652
		c0.64,0.259,1.108,0.5,1.406,0.725s0.518,0.483,0.659,0.776S208.125,27.054,208.125,27.459z"/>
	<path fill="#FFFFFF" d="M217.31,25.782c0,1.333-0.352,2.375-1.055,3.127s-1.682,1.128-2.937,1.128c-0.786,0-1.479-0.172-2.08-0.517
		c-0.601-0.344-1.062-0.838-1.384-1.483s-0.483-1.396-0.483-2.256c0-1.338,0.349-2.378,1.047-3.12s1.68-1.113,2.944-1.113
		c0.786,0,1.479,0.171,2.08,0.513s1.062,0.833,1.384,1.472S217.31,24.922,217.31,25.782z M211.648,25.782
		c0,0.811,0.133,1.423,0.399,1.838s0.7,0.623,1.3,0.623c0.596,0,1.024-0.206,1.286-0.619c0.261-0.413,0.392-1.027,0.392-1.842
		c0-0.811-0.132-1.418-0.396-1.824s-0.696-0.608-1.296-0.608c-0.596,0-1.025,0.202-1.289,0.604
		C211.78,24.357,211.648,24.966,211.648,25.782z"/>
	<path fill="#FFFFFF" d="M222.48,30.037c-2.549,0-3.823-1.399-3.823-4.197c0-1.392,0.347-2.455,1.04-3.19
		c0.693-0.734,1.687-1.102,2.981-1.102c0.947,0,1.797,0.186,2.549,0.557l-0.659,1.729c-0.352-0.142-0.679-0.257-0.981-0.348
		c-0.303-0.09-0.605-0.135-0.908-0.135c-1.162,0-1.743,0.825-1.743,2.476c0,1.602,0.581,2.402,1.743,2.402
		c0.43,0,0.828-0.057,1.194-0.172c0.366-0.114,0.732-0.294,1.099-0.538v1.912c-0.361,0.229-0.727,0.388-1.095,0.476
		C223.507,29.993,223.042,30.037,222.48,30.037z"/>
	<path fill="#FFFFFF" d="M226.772,19.585c0-0.728,0.405-1.091,1.216-1.091s1.216,0.364,1.216,1.091c0,0.347-0.102,0.617-0.304,0.809
		c-0.203,0.193-0.506,0.29-0.912,0.29C227.178,20.684,226.772,20.318,226.772,19.585z M229.102,29.891h-2.234v-8.188h2.234V29.891z"
		/>
	<path fill="#FFFFFF" d="M236.646,29.891l-0.432-1.113h-0.059c-0.376,0.474-0.763,0.802-1.161,0.985
		c-0.398,0.183-0.917,0.274-1.557,0.274c-0.786,0-1.405-0.225-1.856-0.674c-0.452-0.449-0.678-1.089-0.678-1.919
		c0-0.869,0.304-1.51,0.912-1.923c0.607-0.412,1.524-0.641,2.75-0.685l1.421-0.044v-0.359c0-0.83-0.425-1.245-1.274-1.245
		c-0.654,0-1.423,0.198-2.307,0.593l-0.74-1.509c0.942-0.493,1.987-0.74,3.135-0.74c1.099,0,1.941,0.239,2.527,0.718
		s0.879,1.206,0.879,2.183v5.457H236.646z M235.986,26.097l-0.864,0.029c-0.649,0.02-1.133,0.137-1.45,0.352
		s-0.476,0.542-0.476,0.981c0,0.63,0.361,0.945,1.084,0.945c0.518,0,0.931-0.149,1.242-0.447c0.31-0.298,0.465-0.693,0.465-1.187
		V26.097z"/>
	<path fill="#FFFFFF" d="M243.955,28.257c0.391,0,0.859-0.085,1.406-0.256v1.663c-0.557,0.249-1.24,0.374-2.051,0.374
		c-0.894,0-1.544-0.226-1.952-0.678c-0.408-0.451-0.612-1.129-0.612-2.032v-3.948h-1.069v-0.945l1.23-0.747l0.645-1.729h1.428v1.743
		h2.292v1.677h-2.292v3.948c0,0.317,0.089,0.552,0.268,0.703C243.426,28.182,243.662,28.257,243.955,28.257z"/>
	<path fill="#FFFFFF" d="M246.921,19.585c0-0.728,0.405-1.091,1.216-1.091s1.216,0.364,1.216,1.091c0,0.347-0.102,0.617-0.304,0.809
		c-0.203,0.193-0.506,0.29-0.912,0.29C247.327,20.684,246.921,20.318,246.921,19.585z M249.25,29.891h-2.234v-8.188h2.234V29.891z"
		/>
	<path fill="#FFFFFF" d="M259.036,25.782c0,1.333-0.352,2.375-1.055,3.127s-1.682,1.128-2.937,1.128
		c-0.786,0-1.479-0.172-2.08-0.517c-0.601-0.344-1.062-0.838-1.384-1.483s-0.483-1.396-0.483-2.256c0-1.338,0.349-2.378,1.047-3.12
		s1.68-1.113,2.944-1.113c0.786,0,1.479,0.171,2.08,0.513s1.062,0.833,1.384,1.472S259.036,24.922,259.036,25.782z M253.374,25.782
		c0,0.811,0.133,1.423,0.399,1.838s0.7,0.623,1.3,0.623c0.596,0,1.024-0.206,1.286-0.619c0.261-0.413,0.392-1.027,0.392-1.842
		c0-0.811-0.132-1.418-0.396-1.824s-0.696-0.608-1.296-0.608c-0.596,0-1.025,0.202-1.289,0.604
		C253.506,24.357,253.374,24.966,253.374,25.782z"/>
	<path fill="#FFFFFF" d="M268.44,29.891h-2.234v-4.783c0-0.591-0.105-1.034-0.315-1.33c-0.21-0.295-0.544-0.443-1.003-0.443
		c-0.625,0-1.077,0.208-1.355,0.626c-0.278,0.417-0.417,1.109-0.417,2.076v3.853h-2.234v-8.188h1.707l0.3,1.047h0.125
		c0.249-0.396,0.592-0.694,1.029-0.897s0.934-0.304,1.491-0.304c0.952,0,1.675,0.258,2.168,0.773s0.74,1.258,0.74,2.23V29.891z"/>
</g>
<path fill="#00AEEF" stroke="#1C75BC" stroke-miterlimit="10" d="M36.82,57.005l-6.905-11.96c3.117-1.216,5.329-4.24,5.329-7.788
	c0-4.62-3.745-8.366-8.366-8.366c-4.62,0-8.365,3.746-8.365,8.366c0,3.548,2.211,6.572,5.329,7.788l-6.906,11.96H36.82z"/>
<rect x="112.82" y="106.135" fill="#FFFFFF" stroke="#D1D3D4" stroke-miterlimit="10" width="147.004" height="22.301"/>
<g>
	<path d="M138.463,116.21l-0.29,1.494h1.244v0.567h-1.349l-0.369,1.89h-0.602l0.369-1.89h-1.332l-0.36,1.89h-0.598l0.352-1.89
		h-1.151v-0.567h1.261l0.299-1.494h-1.217v-0.558h1.314l0.36-1.916h0.611l-0.36,1.916h1.34l0.369-1.916h0.589l-0.369,1.916h1.16
		v0.558H138.463z M136.24,117.705h1.332l0.29-1.494h-1.332L136.24,117.705z"/>
	<path d="M142.484,116.949l1.714-3.212h0.809l-2.145,3.933v2.492h-0.756v-2.457l-2.14-3.968h0.817L142.484,116.949z"/>
	<path d="M147.705,118.083v-0.668h3.779v0.668H147.705z"/>
	<path d="M155.813,120.161h-0.747v-6.425h3.582v0.664h-2.834v2.351h2.663v0.664h-2.663V120.161z"/>
	<path d="M161.636,120.249c-0.712,0-1.274-0.217-1.685-0.65c-0.412-0.434-0.618-1.036-0.618-1.806c0-0.776,0.191-1.393,0.574-1.85
		c0.382-0.457,0.896-0.686,1.54-0.686c0.604,0,1.081,0.199,1.433,0.596s0.527,0.92,0.527,1.571v0.461h-3.318
		c0.015,0.565,0.157,0.995,0.428,1.288s0.653,0.439,1.145,0.439c0.519,0,1.031-0.108,1.538-0.325v0.65
		c-0.258,0.111-0.502,0.191-0.732,0.24C162.238,120.225,161.961,120.249,161.636,120.249z M161.438,115.868
		c-0.387,0-0.695,0.126-0.925,0.378c-0.23,0.252-0.366,0.601-0.407,1.046h2.518c0-0.46-0.103-0.812-0.308-1.057
		C162.112,115.99,161.819,115.868,161.438,115.868z"/>
	<path d="M167.612,120.161l-0.145-0.686h-0.035c-0.24,0.302-0.48,0.506-0.718,0.613c-0.239,0.106-0.537,0.16-0.895,0.16
		c-0.478,0-0.852-0.123-1.123-0.369s-0.406-0.596-0.406-1.05c0-0.973,0.778-1.482,2.333-1.529l0.817-0.026v-0.299
		c0-0.378-0.082-0.657-0.244-0.837c-0.163-0.18-0.423-0.27-0.78-0.27c-0.401,0-0.855,0.123-1.362,0.369l-0.224-0.558
		c0.237-0.129,0.497-0.23,0.78-0.303s0.566-0.11,0.851-0.11c0.574,0,1,0.127,1.276,0.382c0.277,0.255,0.416,0.664,0.416,1.226v3.287
		H167.612z M165.964,119.647c0.454,0,0.811-0.125,1.07-0.374c0.26-0.249,0.389-0.598,0.389-1.046v-0.435l-0.729,0.031
		c-0.58,0.021-0.999,0.111-1.254,0.271c-0.257,0.16-0.385,0.408-0.385,0.745c0,0.264,0.08,0.464,0.239,0.602
		S165.677,119.647,165.964,119.647z"/>
	<path d="M171.211,119.647c0.129,0,0.253-0.009,0.374-0.029c0.12-0.019,0.215-0.039,0.286-0.059v0.558
		c-0.079,0.038-0.195,0.069-0.35,0.095c-0.153,0.024-0.292,0.037-0.415,0.037c-0.932,0-1.397-0.491-1.397-1.472v-2.865h-0.69v-0.352
		l0.69-0.303l0.308-1.028h0.422v1.116h1.397v0.567h-1.397v2.834c0,0.29,0.069,0.513,0.207,0.668S170.971,119.647,171.211,119.647z"
		/>
	<path d="M173.519,115.345v3.125c0,0.393,0.089,0.686,0.268,0.879s0.458,0.29,0.839,0.29c0.504,0,0.872-0.138,1.105-0.413
		c0.232-0.275,0.349-0.725,0.349-1.349v-2.531h0.729v4.816h-0.602l-0.105-0.646h-0.04c-0.149,0.237-0.357,0.419-0.622,0.545
		c-0.266,0.126-0.568,0.189-0.908,0.189c-0.586,0-1.025-0.139-1.316-0.417c-0.292-0.278-0.438-0.724-0.438-1.336v-3.151H173.519z"/>
	<path d="M180.554,115.257c0.214,0,0.406,0.018,0.576,0.053l-0.101,0.677c-0.199-0.044-0.375-0.066-0.527-0.066
		c-0.39,0-0.723,0.158-1,0.475c-0.276,0.316-0.415,0.71-0.415,1.182v2.584h-0.729v-4.816h0.602l0.083,0.892h0.035
		c0.179-0.313,0.394-0.555,0.646-0.725S180.252,115.257,180.554,115.257z"/>
	<path d="M184.065,120.249c-0.712,0-1.274-0.217-1.685-0.65c-0.412-0.434-0.618-1.036-0.618-1.806c0-0.776,0.191-1.393,0.574-1.85
		c0.382-0.457,0.896-0.686,1.54-0.686c0.604,0,1.081,0.199,1.433,0.596s0.527,0.92,0.527,1.571v0.461h-3.318
		c0.015,0.565,0.157,0.995,0.428,1.288s0.653,0.439,1.145,0.439c0.519,0,1.031-0.108,1.538-0.325v0.65
		c-0.258,0.111-0.502,0.191-0.732,0.24C184.668,120.225,184.391,120.249,184.065,120.249z M183.868,115.868
		c-0.387,0-0.695,0.126-0.925,0.378c-0.23,0.252-0.366,0.601-0.407,1.046h2.518c0-0.46-0.103-0.812-0.308-1.057
		C184.542,115.99,184.249,115.868,183.868,115.868z"/>
	<path d="M191.615,115.257c0.214,0,0.406,0.018,0.576,0.053l-0.101,0.677c-0.199-0.044-0.375-0.066-0.527-0.066
		c-0.39,0-0.723,0.158-1,0.475c-0.276,0.316-0.415,0.71-0.415,1.182v2.584h-0.729v-4.816h0.602l0.083,0.892h0.035
		c0.179-0.313,0.394-0.555,0.646-0.725S191.313,115.257,191.615,115.257z"/>
	<path d="M195.126,120.249c-0.712,0-1.274-0.217-1.685-0.65c-0.412-0.434-0.618-1.036-0.618-1.806c0-0.776,0.191-1.393,0.574-1.85
		c0.382-0.457,0.896-0.686,1.54-0.686c0.604,0,1.081,0.199,1.433,0.596s0.527,0.92,0.527,1.571v0.461h-3.318
		c0.015,0.565,0.157,0.995,0.428,1.288s0.653,0.439,1.145,0.439c0.519,0,1.031-0.108,1.538-0.325v0.65
		c-0.258,0.111-0.502,0.191-0.732,0.24C195.729,120.225,195.452,120.249,195.126,120.249z M194.929,115.868
		c-0.387,0-0.695,0.126-0.925,0.378c-0.23,0.252-0.366,0.601-0.407,1.046h2.518c0-0.46-0.103-0.812-0.308-1.057
		C195.603,115.99,195.31,115.868,194.929,115.868z"/>
	<path d="M199.851,120.249c-0.621,0-1.106-0.218-1.455-0.655s-0.523-1.046-0.523-1.828c0-0.788,0.176-1.403,0.527-1.846
		s0.841-0.664,1.468-0.664c0.659,0,1.166,0.249,1.521,0.747h0.04l0.105-0.659h0.576v6.979h-0.729v-2.061
		c0-0.293,0.016-0.542,0.048-0.747h-0.057C201.034,120.004,200.527,120.249,199.851,120.249z M199.96,119.638
		c0.486,0,0.841-0.13,1.063-0.391s0.341-0.7,0.356-1.318v-0.163c0-0.674-0.114-1.159-0.343-1.455s-0.59-0.444-1.085-0.444
		c-0.428,0-0.755,0.167-0.982,0.499c-0.227,0.333-0.34,0.802-0.34,1.409s0.112,1.069,0.336,1.386
		C199.189,119.479,199.521,119.638,199.96,119.638z"/>
	<path d="M204.342,115.345v3.125c0,0.393,0.089,0.686,0.268,0.879s0.458,0.29,0.839,0.29c0.504,0,0.872-0.138,1.105-0.413
		c0.232-0.275,0.349-0.725,0.349-1.349v-2.531h0.729v4.816h-0.602l-0.105-0.646h-0.04c-0.149,0.237-0.357,0.419-0.622,0.545
		c-0.266,0.126-0.568,0.189-0.908,0.189c-0.586,0-1.025-0.139-1.316-0.417c-0.292-0.278-0.438-0.724-0.438-1.336v-3.151H204.342z"/>
	<path d="M211.215,120.249c-0.712,0-1.274-0.217-1.685-0.65c-0.412-0.434-0.618-1.036-0.618-1.806c0-0.776,0.191-1.393,0.574-1.85
		c0.382-0.457,0.896-0.686,1.54-0.686c0.604,0,1.081,0.199,1.433,0.596s0.527,0.92,0.527,1.571v0.461h-3.318
		c0.015,0.565,0.157,0.995,0.428,1.288s0.653,0.439,1.145,0.439c0.519,0,1.031-0.108,1.538-0.325v0.65
		c-0.258,0.111-0.502,0.191-0.732,0.24C211.817,120.225,211.54,120.249,211.215,120.249z M211.017,115.868
		c-0.387,0-0.695,0.126-0.925,0.378c-0.23,0.252-0.366,0.601-0.407,1.046h2.518c0-0.46-0.103-0.812-0.308-1.057
		C211.691,115.99,211.398,115.868,211.017,115.868z"/>
	<path d="M217.336,118.847c0,0.448-0.167,0.794-0.501,1.037s-0.803,0.365-1.406,0.365c-0.639,0-1.137-0.101-1.494-0.303v-0.677
		c0.231,0.117,0.479,0.209,0.745,0.277s0.521,0.101,0.767,0.101c0.381,0,0.674-0.061,0.879-0.182s0.308-0.307,0.308-0.556
		c0-0.188-0.082-0.348-0.244-0.481c-0.163-0.133-0.48-0.291-0.952-0.473c-0.448-0.167-0.767-0.312-0.956-0.438
		c-0.189-0.124-0.33-0.266-0.422-0.424c-0.093-0.158-0.139-0.347-0.139-0.567c0-0.393,0.16-0.702,0.479-0.929
		s0.757-0.341,1.314-0.341c0.519,0,1.025,0.105,1.521,0.316l-0.259,0.593c-0.483-0.199-0.921-0.299-1.314-0.299
		c-0.346,0-0.606,0.054-0.782,0.163s-0.264,0.258-0.264,0.448c0,0.129,0.033,0.239,0.099,0.33c0.066,0.091,0.172,0.177,0.319,0.259
		s0.428,0.201,0.844,0.356c0.571,0.208,0.957,0.417,1.158,0.628S217.336,118.528,217.336,118.847z"/>
	<path d="M220.079,119.647c0.129,0,0.253-0.009,0.374-0.029c0.12-0.019,0.215-0.039,0.286-0.059v0.558
		c-0.079,0.038-0.195,0.069-0.35,0.095c-0.153,0.024-0.292,0.037-0.415,0.037c-0.932,0-1.397-0.491-1.397-1.472v-2.865h-0.69v-0.352
		l0.69-0.303l0.308-1.028h0.422v1.116h1.397v0.567h-1.397v2.834c0,0.29,0.069,0.513,0.207,0.668S219.838,119.647,220.079,119.647z"
		/>
</g>
<g>
	<circle fill="none" stroke="#00A651" stroke-miterlimit="10" cx="123.215" cy="117.171" r="8.198"/>
	<g>
		<path fill="#00A651" d="M122.462,121.51c0-0.597,0.264-0.896,0.791-0.896c0.255,0,0.452,0.078,0.59,0.231
			c0.139,0.153,0.208,0.375,0.208,0.665c0,0.281-0.07,0.5-0.211,0.656c-0.141,0.155-0.336,0.233-0.586,0.233
			c-0.229,0-0.417-0.069-0.566-0.207C122.537,122.053,122.462,121.827,122.462,121.51z M123.609,119.553h-0.692l-0.336-6.978h1.364
			L123.609,119.553z"/>
	</g>
</g>
<rect x="112.82" y="161.886" fill="#FFFFFF" stroke="#D1D3D4" stroke-miterlimit="10" width="147.004" height="22.301"/>
<g>
	<path d="M138.463,171.96l-0.29,1.494h1.244v0.567h-1.349l-0.369,1.89h-0.602l0.369-1.89h-1.332l-0.36,1.89h-0.598l0.352-1.89
		h-1.151v-0.567h1.261l0.299-1.494h-1.217v-0.558h1.314l0.36-1.916h0.611l-0.36,1.916h1.34l0.369-1.916h0.589l-0.369,1.916h1.16
		v0.558H138.463z M136.24,173.455h1.332l0.29-1.494h-1.332L136.24,173.455z"/>
	<path d="M144.743,175.911h-4.417v-0.584l3.41-5.168h-3.305v-0.672h4.214v0.584l-3.41,5.164h3.507V175.911z"/>
	<path d="M147.802,173.833v-0.668h3.779v0.668H147.802z"/>
	<path d="M157.14,175.911h-0.747v-5.761h-2.035v-0.664h4.816v0.664h-2.035V175.911z"/>
	<path d="M162.229,171.007c0.214,0,0.406,0.018,0.576,0.053l-0.101,0.677c-0.199-0.044-0.375-0.066-0.527-0.066
		c-0.39,0-0.723,0.158-1,0.475c-0.276,0.316-0.415,0.71-0.415,1.182v2.584h-0.729v-4.816h0.602l0.083,0.892h0.035
		c0.179-0.313,0.394-0.555,0.646-0.725S161.927,171.007,162.229,171.007z"/>
	<path d="M166.667,175.911l-0.145-0.686h-0.035c-0.24,0.302-0.48,0.506-0.718,0.613c-0.239,0.106-0.537,0.16-0.895,0.16
		c-0.478,0-0.852-0.123-1.123-0.369s-0.406-0.596-0.406-1.05c0-0.973,0.778-1.482,2.333-1.529l0.817-0.026v-0.299
		c0-0.378-0.082-0.657-0.244-0.837c-0.163-0.18-0.423-0.27-0.78-0.27c-0.401,0-0.855,0.123-1.362,0.369l-0.224-0.558
		c0.237-0.129,0.497-0.23,0.78-0.303s0.566-0.11,0.851-0.11c0.574,0,1,0.127,1.276,0.382c0.277,0.255,0.416,0.664,0.416,1.226v3.287
		H166.667z M165.02,175.397c0.454,0,0.811-0.125,1.07-0.374c0.26-0.249,0.389-0.598,0.389-1.046v-0.435l-0.729,0.031
		c-0.58,0.021-0.999,0.111-1.254,0.271c-0.257,0.16-0.385,0.408-0.385,0.745c0,0.264,0.08,0.464,0.239,0.602
		S164.732,175.397,165.02,175.397z"/>
	<path d="M168.649,169.79c0-0.167,0.041-0.289,0.123-0.367s0.185-0.117,0.308-0.117c0.117,0,0.218,0.04,0.303,0.119
		s0.127,0.201,0.127,0.365s-0.042,0.287-0.127,0.367c-0.085,0.081-0.186,0.121-0.303,0.121c-0.123,0-0.226-0.04-0.308-0.121
		C168.69,170.076,168.649,169.954,168.649,169.79z M169.44,175.911h-0.729v-4.816h0.729V175.911z"/>
	<path d="M174.283,175.911v-3.116c0-0.393-0.089-0.686-0.268-0.879s-0.458-0.29-0.839-0.29c-0.504,0-0.873,0.136-1.107,0.409
		s-0.352,0.722-0.352,1.349v2.527h-0.729v-4.816h0.593l0.119,0.659h0.035c0.149-0.237,0.359-0.421,0.628-0.552
		c0.27-0.13,0.57-0.195,0.901-0.195c0.58,0,1.017,0.14,1.31,0.42s0.439,0.727,0.439,1.342v3.142H174.283z"/>
	<path d="M176.45,169.79c0-0.167,0.041-0.289,0.123-0.367s0.185-0.117,0.308-0.117c0.117,0,0.218,0.04,0.303,0.119
		s0.127,0.201,0.127,0.365s-0.042,0.287-0.127,0.367c-0.085,0.081-0.186,0.121-0.303,0.121c-0.123,0-0.226-0.04-0.308-0.121
		C176.491,170.076,176.45,169.954,176.45,169.79z M177.241,175.911h-0.729v-4.816h0.729V175.911z"/>
	<path d="M182.083,175.911v-3.116c0-0.393-0.089-0.686-0.268-0.879s-0.458-0.29-0.839-0.29c-0.504,0-0.873,0.136-1.107,0.409
		s-0.352,0.722-0.352,1.349v2.527h-0.729v-4.816h0.593l0.119,0.659h0.035c0.149-0.237,0.359-0.421,0.628-0.552
		c0.27-0.13,0.57-0.195,0.901-0.195c0.58,0,1.017,0.14,1.31,0.42s0.439,0.727,0.439,1.342v3.142H182.083z"/>
	<path d="M188.253,171.095v0.461l-0.892,0.105c0.082,0.103,0.155,0.237,0.22,0.402c0.064,0.166,0.097,0.353,0.097,0.561
		c0,0.472-0.161,0.848-0.483,1.129s-0.765,0.422-1.327,0.422c-0.144,0-0.278-0.012-0.404-0.035c-0.311,0.164-0.466,0.371-0.466,0.62
		c0,0.132,0.054,0.229,0.163,0.292c0.108,0.063,0.294,0.095,0.558,0.095h0.853c0.521,0,0.922,0.11,1.202,0.33
		c0.279,0.22,0.419,0.539,0.419,0.958c0,0.533-0.214,0.939-0.642,1.219s-1.052,0.42-1.872,0.42c-0.63,0-1.116-0.117-1.457-0.352
		c-0.342-0.234-0.512-0.565-0.512-0.993c0-0.293,0.094-0.546,0.281-0.76s0.451-0.359,0.791-0.435
		c-0.123-0.056-0.226-0.142-0.31-0.259c-0.083-0.117-0.125-0.253-0.125-0.409c0-0.176,0.047-0.33,0.141-0.461
		s0.242-0.259,0.444-0.382c-0.249-0.103-0.452-0.277-0.609-0.523s-0.235-0.527-0.235-0.844c0-0.527,0.158-0.934,0.475-1.219
		c0.316-0.286,0.765-0.429,1.345-0.429c0.252,0,0.479,0.029,0.681,0.088H188.253z M184.413,176.72c0,0.261,0.11,0.458,0.33,0.593
		s0.535,0.202,0.945,0.202c0.612,0,1.066-0.092,1.36-0.275c0.295-0.183,0.442-0.431,0.442-0.745c0-0.261-0.081-0.442-0.242-0.542
		c-0.161-0.102-0.464-0.152-0.91-0.152h-0.875c-0.331,0-0.589,0.079-0.773,0.237S184.413,176.424,184.413,176.72z M184.808,172.637
		c0,0.337,0.095,0.592,0.286,0.765s0.456,0.259,0.795,0.259c0.712,0,1.068-0.346,1.068-1.037c0-0.724-0.36-1.085-1.081-1.085
		c-0.343,0-0.606,0.092-0.791,0.277S184.808,172.274,184.808,172.637z"/>
	<path d="M193.777,171.007c0.214,0,0.406,0.018,0.576,0.053l-0.101,0.677c-0.199-0.044-0.375-0.066-0.527-0.066
		c-0.39,0-0.723,0.158-1,0.475c-0.276,0.316-0.415,0.71-0.415,1.182v2.584h-0.729v-4.816h0.602l0.083,0.892h0.035
		c0.179-0.313,0.394-0.555,0.646-0.725S193.476,171.007,193.777,171.007z"/>
	<path d="M197.289,175.999c-0.712,0-1.274-0.217-1.685-0.65c-0.412-0.434-0.618-1.036-0.618-1.806c0-0.776,0.191-1.393,0.574-1.85
		c0.382-0.457,0.896-0.686,1.54-0.686c0.604,0,1.081,0.199,1.433,0.596s0.527,0.92,0.527,1.571v0.461h-3.318
		c0.015,0.565,0.157,0.995,0.428,1.288s0.653,0.439,1.145,0.439c0.519,0,1.031-0.108,1.538-0.325v0.65
		c-0.258,0.111-0.502,0.191-0.732,0.24C197.891,175.975,197.614,175.999,197.289,175.999z M197.091,171.618
		c-0.387,0-0.695,0.126-0.925,0.378c-0.23,0.252-0.366,0.601-0.407,1.046h2.518c0-0.46-0.103-0.812-0.308-1.057
		C197.765,171.74,197.472,171.618,197.091,171.618z"/>
	<path d="M202.013,175.999c-0.621,0-1.106-0.218-1.455-0.655s-0.523-1.046-0.523-1.828c0-0.788,0.176-1.403,0.527-1.846
		s0.841-0.664,1.468-0.664c0.659,0,1.166,0.249,1.521,0.747h0.04l0.105-0.659h0.576v6.979h-0.729v-2.061
		c0-0.293,0.016-0.542,0.048-0.747h-0.057C203.196,175.754,202.689,175.999,202.013,175.999z M202.123,175.388
		c0.486,0,0.841-0.13,1.063-0.391s0.341-0.7,0.356-1.318v-0.163c0-0.674-0.114-1.159-0.343-1.455s-0.59-0.444-1.085-0.444
		c-0.428,0-0.755,0.167-0.982,0.499c-0.227,0.333-0.34,0.802-0.34,1.409s0.112,1.069,0.336,1.386
		C201.351,175.229,201.683,175.388,202.123,175.388z"/>
	<path d="M206.504,171.095v3.125c0,0.393,0.089,0.686,0.268,0.879s0.458,0.29,0.839,0.29c0.504,0,0.872-0.138,1.105-0.413
		c0.232-0.275,0.349-0.725,0.349-1.349v-2.531h0.729v4.816h-0.602l-0.105-0.646h-0.04c-0.149,0.237-0.357,0.419-0.622,0.545
		c-0.266,0.126-0.568,0.189-0.908,0.189c-0.586,0-1.025-0.139-1.316-0.417c-0.292-0.278-0.438-0.724-0.438-1.336v-3.151H206.504z"/>
	<path d="M213.377,175.999c-0.712,0-1.274-0.217-1.685-0.65c-0.412-0.434-0.618-1.036-0.618-1.806c0-0.776,0.191-1.393,0.574-1.85
		c0.382-0.457,0.896-0.686,1.54-0.686c0.604,0,1.081,0.199,1.433,0.596s0.527,0.92,0.527,1.571v0.461h-3.318
		c0.015,0.565,0.157,0.995,0.428,1.288s0.653,0.439,1.145,0.439c0.519,0,1.031-0.108,1.538-0.325v0.65
		c-0.258,0.111-0.502,0.191-0.732,0.24C213.979,175.975,213.702,175.999,213.377,175.999z M213.179,171.618
		c-0.387,0-0.695,0.126-0.925,0.378c-0.23,0.252-0.366,0.601-0.407,1.046h2.518c0-0.46-0.103-0.812-0.308-1.057
		C213.853,171.74,213.56,171.618,213.179,171.618z"/>
	<path d="M219.499,174.597c0,0.448-0.167,0.794-0.501,1.037s-0.803,0.365-1.406,0.365c-0.639,0-1.137-0.101-1.494-0.303v-0.677
		c0.231,0.117,0.479,0.209,0.745,0.277s0.521,0.101,0.767,0.101c0.381,0,0.674-0.061,0.879-0.182s0.308-0.307,0.308-0.556
		c0-0.188-0.082-0.348-0.244-0.481c-0.163-0.133-0.48-0.291-0.952-0.473c-0.448-0.167-0.767-0.312-0.956-0.438
		c-0.189-0.124-0.33-0.266-0.422-0.424c-0.093-0.158-0.139-0.347-0.139-0.567c0-0.393,0.16-0.702,0.479-0.929
		s0.757-0.341,1.314-0.341c0.519,0,1.025,0.105,1.521,0.316l-0.259,0.593c-0.483-0.199-0.921-0.299-1.314-0.299
		c-0.346,0-0.606,0.054-0.782,0.163s-0.264,0.258-0.264,0.448c0,0.129,0.033,0.239,0.099,0.33c0.066,0.091,0.172,0.177,0.319,0.259
		s0.428,0.201,0.844,0.356c0.571,0.208,0.957,0.417,1.158,0.628S219.499,174.278,219.499,174.597z"/>
	<path d="M222.241,175.397c0.129,0,0.253-0.009,0.374-0.029c0.12-0.019,0.215-0.039,0.286-0.059v0.558
		c-0.079,0.038-0.195,0.069-0.35,0.095c-0.153,0.024-0.292,0.037-0.415,0.037c-0.932,0-1.397-0.491-1.397-1.472v-2.865h-0.69v-0.352
		l0.69-0.303l0.308-1.028h0.422v1.116h1.397v0.567h-1.397v2.834c0,0.29,0.069,0.513,0.207,0.668S222,175.397,222.241,175.397z"/>
</g>
<g>
	<circle fill="none" stroke="#00A651" stroke-miterlimit="10" cx="123.215" cy="172.921" r="8.198"/>
	<g>
		<path fill="#00A651" d="M122.462,177.261c0-0.598,0.264-0.896,0.791-0.896c0.255,0,0.452,0.078,0.59,0.23
			c0.139,0.154,0.208,0.375,0.208,0.666c0,0.281-0.07,0.5-0.211,0.656c-0.141,0.154-0.336,0.232-0.586,0.232
			c-0.229,0-0.417-0.068-0.566-0.207C122.537,177.804,122.462,177.577,122.462,177.261z M123.609,175.304h-0.692l-0.336-6.979h1.364
			L123.609,175.304z"/>
	</g>
</g>
<rect x="112.82" y="50.885" fill="#FFFFFF" stroke="#D1D3D4" stroke-miterlimit="10" width="147.004" height="22.301"/>
<g>
	<path d="M138.463,60.96l-0.29,1.494h1.244v0.567h-1.349l-0.369,1.89h-0.602l0.369-1.89h-1.332l-0.36,1.89h-0.598l0.352-1.89h-1.151
		v-0.567h1.261l0.299-1.494h-1.217v-0.558h1.314l0.36-1.916h0.611l-0.36,1.916h1.34l0.369-1.916h0.589l-0.369,1.916h1.16v0.558
		H138.463z M136.24,62.455h1.332l0.29-1.494h-1.332L136.24,62.455z"/>
	<path d="M145.125,64.911h-0.848l-1.727-2.826l-1.758,2.826h-0.791l2.136-3.357l-1.991-3.067h0.826l1.595,2.544l1.608-2.544h0.795
		l-1.991,3.041L145.125,64.911z"/>
	<path d="M147.859,62.833v-0.668h3.779v0.668H147.859z"/>
	<path d="M155.22,58.486h1.815c0.853,0,1.469,0.127,1.85,0.382s0.571,0.658,0.571,1.208c0,0.381-0.106,0.695-0.319,0.942
		c-0.212,0.248-0.522,0.408-0.929,0.481v0.044c0.976,0.167,1.463,0.68,1.463,1.538c0,0.574-0.194,1.022-0.582,1.345
		c-0.389,0.322-0.931,0.483-1.628,0.483h-2.241V58.486z M155.967,61.237h1.23c0.527,0,0.907-0.083,1.138-0.248
		s0.347-0.445,0.347-0.837c0-0.36-0.129-0.62-0.387-0.78s-0.668-0.24-1.23-0.24h-1.099V61.237z M155.967,61.87v2.404h1.34
		c0.519,0,0.909-0.1,1.171-0.301c0.262-0.2,0.394-0.515,0.394-0.942c0-0.398-0.134-0.691-0.402-0.879
		c-0.268-0.188-0.676-0.281-1.224-0.281H155.967z"/>
	<path d="M161.627,60.095v3.125c0,0.393,0.089,0.686,0.268,0.879s0.458,0.29,0.839,0.29c0.504,0,0.872-0.138,1.105-0.413
		c0.232-0.275,0.349-0.725,0.349-1.349v-2.531h0.729v4.816h-0.602l-0.105-0.646h-0.04c-0.149,0.237-0.357,0.419-0.622,0.545
		c-0.266,0.126-0.568,0.189-0.908,0.189c-0.586,0-1.025-0.139-1.316-0.417c-0.292-0.278-0.438-0.724-0.438-1.336v-3.151H161.627z"/>
	<path d="M170.407,60.095v0.461l-0.892,0.105c0.082,0.103,0.155,0.237,0.22,0.402c0.064,0.166,0.097,0.353,0.097,0.561
		c0,0.472-0.161,0.848-0.483,1.129s-0.765,0.422-1.327,0.422c-0.144,0-0.278-0.012-0.404-0.035c-0.311,0.164-0.466,0.371-0.466,0.62
		c0,0.132,0.054,0.229,0.163,0.292c0.108,0.063,0.294,0.095,0.558,0.095h0.853c0.521,0,0.922,0.11,1.202,0.33
		c0.279,0.22,0.419,0.539,0.419,0.958c0,0.533-0.214,0.939-0.642,1.219s-1.052,0.42-1.872,0.42c-0.63,0-1.116-0.117-1.457-0.352
		c-0.342-0.234-0.512-0.565-0.512-0.993c0-0.293,0.094-0.546,0.281-0.76s0.451-0.359,0.791-0.435
		c-0.123-0.056-0.226-0.142-0.31-0.259c-0.083-0.117-0.125-0.253-0.125-0.409c0-0.176,0.047-0.33,0.141-0.461
		s0.242-0.259,0.444-0.382c-0.249-0.103-0.452-0.277-0.609-0.523s-0.235-0.527-0.235-0.844c0-0.527,0.158-0.934,0.475-1.219
		c0.316-0.286,0.765-0.429,1.345-0.429c0.252,0,0.479,0.029,0.681,0.088H170.407z M166.566,65.72c0,0.261,0.11,0.458,0.33,0.593
		s0.535,0.202,0.945,0.202c0.612,0,1.066-0.092,1.36-0.275c0.295-0.183,0.442-0.431,0.442-0.745c0-0.261-0.081-0.442-0.242-0.542
		c-0.161-0.102-0.464-0.152-0.91-0.152h-0.875c-0.331,0-0.589,0.079-0.773,0.237S166.566,65.424,166.566,65.72z M166.962,61.637
		c0,0.337,0.095,0.592,0.286,0.765s0.456,0.259,0.795,0.259c0.712,0,1.068-0.346,1.068-1.037c0-0.724-0.36-1.085-1.081-1.085
		c-0.343,0-0.606,0.092-0.791,0.277S166.962,61.274,166.962,61.637z"/>
	<path d="M175.931,60.007c0.214,0,0.406,0.018,0.576,0.053l-0.101,0.677c-0.199-0.044-0.375-0.066-0.527-0.066
		c-0.39,0-0.723,0.158-1,0.475c-0.276,0.316-0.415,0.71-0.415,1.182v2.584h-0.729v-4.816h0.602l0.083,0.892h0.035
		c0.179-0.313,0.394-0.555,0.646-0.725S175.629,60.007,175.931,60.007z"/>
	<path d="M179.442,64.999c-0.712,0-1.274-0.217-1.685-0.65c-0.412-0.434-0.618-1.036-0.618-1.806c0-0.776,0.191-1.393,0.574-1.85
		c0.382-0.457,0.896-0.686,1.54-0.686c0.604,0,1.081,0.199,1.433,0.596s0.527,0.92,0.527,1.571v0.461h-3.318
		c0.015,0.565,0.157,0.995,0.428,1.288s0.653,0.439,1.145,0.439c0.519,0,1.031-0.108,1.538-0.325v0.65
		c-0.258,0.111-0.502,0.191-0.732,0.24C180.045,64.975,179.768,64.999,179.442,64.999z M179.245,60.618
		c-0.387,0-0.695,0.126-0.925,0.378c-0.23,0.252-0.366,0.601-0.407,1.046h2.518c0-0.46-0.103-0.812-0.308-1.057
		C179.918,60.74,179.625,60.618,179.245,60.618z"/>
	<path d="M184.698,64.999c-0.313,0-0.6-0.058-0.859-0.174c-0.259-0.115-0.477-0.293-0.652-0.534h-0.053
		c0.035,0.281,0.053,0.548,0.053,0.8v1.982h-0.729v-6.979h0.593l0.101,0.659h0.035c0.188-0.264,0.406-0.454,0.655-0.571
		s0.535-0.176,0.857-0.176c0.639,0,1.132,0.218,1.479,0.655c0.348,0.437,0.521,1.049,0.521,1.837c0,0.791-0.177,1.406-0.53,1.843
		C185.815,64.78,185.325,64.999,184.698,64.999z M184.593,60.626c-0.492,0-0.848,0.136-1.068,0.409s-0.333,0.706-0.338,1.301v0.163
		c0,0.677,0.113,1.161,0.338,1.453s0.587,0.437,1.085,0.437c0.416,0,0.742-0.168,0.978-0.505s0.354-0.801,0.354-1.393
		c0-0.601-0.118-1.061-0.354-1.382C185.352,60.787,185.021,60.626,184.593,60.626z"/>
	<path d="M192.129,62.499c0,0.785-0.198,1.398-0.593,1.839s-0.942,0.661-1.639,0.661c-0.431,0-0.813-0.101-1.147-0.303
		s-0.592-0.492-0.773-0.87s-0.272-0.82-0.272-1.327c0-0.785,0.196-1.396,0.589-1.834s0.938-0.657,1.635-0.657
		c0.674,0,1.209,0.224,1.606,0.672S192.129,61.734,192.129,62.499z M188.46,62.499c0,0.615,0.123,1.084,0.369,1.406
		s0.608,0.483,1.085,0.483s0.84-0.161,1.088-0.481c0.247-0.321,0.371-0.791,0.371-1.409c0-0.612-0.124-1.077-0.371-1.395
		c-0.248-0.318-0.613-0.477-1.097-0.477c-0.478,0-0.838,0.157-1.081,0.47S188.46,61.877,188.46,62.499z"/>
	<path d="M195.605,60.007c0.214,0,0.406,0.018,0.576,0.053l-0.101,0.677c-0.199-0.044-0.375-0.066-0.527-0.066
		c-0.39,0-0.723,0.158-1,0.475c-0.276,0.316-0.415,0.71-0.415,1.182v2.584h-0.729v-4.816h0.602l0.083,0.892h0.035
		c0.179-0.313,0.394-0.555,0.646-0.725S195.304,60.007,195.605,60.007z"/>
	<path d="M198.638,64.397c0.129,0,0.253-0.009,0.374-0.029c0.12-0.019,0.215-0.039,0.286-0.059v0.558
		c-0.079,0.038-0.195,0.069-0.35,0.095c-0.153,0.024-0.292,0.037-0.415,0.037c-0.932,0-1.397-0.491-1.397-1.472v-2.865h-0.69V60.31
		l0.69-0.303l0.308-1.028h0.422v1.116h1.397v0.567h-1.397v2.834c0,0.29,0.069,0.513,0.207,0.668S198.397,64.397,198.638,64.397z"/>
</g>
<g>
	<circle fill="none" stroke="#00A651" stroke-miterlimit="10" cx="123.215" cy="61.921" r="8.198"/>
	<g>
		<path fill="#00A651" d="M122.462,66.26c0-0.597,0.264-0.896,0.791-0.896c0.255,0,0.452,0.078,0.59,0.231
			c0.139,0.153,0.208,0.375,0.208,0.665c0,0.281-0.07,0.5-0.211,0.656c-0.141,0.155-0.336,0.233-0.586,0.233
			c-0.229,0-0.417-0.069-0.566-0.207C122.537,66.803,122.462,66.577,122.462,66.26z M123.609,64.303h-0.692l-0.336-6.978h1.364
			L123.609,64.303z"/>
	</g>
</g>
<path fill="#A5CF4C" stroke="#39B54A" stroke-miterlimit="10" d="M371.063,74.728l-6.906-11.96c3.117-1.216,5.328-4.24,5.328-7.788
	c0-4.62-3.744-8.366-8.365-8.366c-4.619,0-8.365,3.746-8.365,8.366c0,3.548,2.213,6.572,5.33,7.788l-6.906,11.96H371.063z"/>
<path fill="#00AEEF" stroke="#1C75BC" stroke-miterlimit="10" d="M36.82,91.025l-6.905-11.96c3.117-1.216,5.328-4.24,5.328-7.788
	c0-4.62-3.744-8.366-8.365-8.366c-4.62,0-8.365,3.746-8.365,8.366c0,3.548,2.211,6.572,5.329,7.788l-6.906,11.96H36.82z"/>
<path fill="#00AEEF" stroke="#1C75BC" stroke-miterlimit="10" d="M36.82,129.228l-6.905-11.96c3.117-1.216,5.328-4.24,5.328-7.788
	c0-4.62-3.744-8.366-8.365-8.366c-4.62,0-8.365,3.746-8.365,8.366c0,3.548,2.211,6.572,5.329,7.788l-6.906,11.96H36.82z"/>
<path fill="#00AEEF" stroke="#1C75BC" stroke-miterlimit="10" d="M36.82,184.187l-6.905-11.961c3.117-1.216,5.328-4.24,5.328-7.787
	c0-4.621-3.744-8.366-8.365-8.366c-4.62,0-8.365,3.745-8.365,8.366c0,3.547,2.211,6.571,5.329,7.787l-6.906,11.961H36.82z"/>
<path fill="#A5CF4C" stroke="#39B54A" stroke-miterlimit="10" d="M371.063,130.045l-6.906-11.96c3.117-1.216,5.328-4.24,5.328-7.788
	c0-4.62-3.744-8.366-8.365-8.366c-4.619,0-8.365,3.746-8.365,8.366c0,3.548,2.213,6.572,5.33,7.788l-6.906,11.96H371.063z"/>
<path fill="#A5CF4C" stroke="#39B54A" stroke-miterlimit="10" d="M371.063,187.296l-6.906-11.961
	c3.117-1.217,5.328-4.24,5.328-7.788c0-4.62-3.744-8.366-8.365-8.366c-4.619,0-8.365,3.746-8.365,8.366
	c0,3.548,2.213,6.571,5.33,7.788l-6.906,11.961H371.063z"/>
<g>
	<g>
		<g>
			<line fill="none" stroke="#000000" stroke-miterlimit="10" x1="39.656" y1="47.885" x2="106.41" y2="58.362"/>
			<g>
				<polygon points="111.99,59.238 103.623,61.217 105.993,58.296 104.631,54.792 				"/>
			</g>
		</g>
	</g>
	<g>
		<g>
			<line fill="none" stroke="#000000" stroke-miterlimit="10" x1="39.656" y1="80.019" x2="106.449" y2="66.784"/>
			<g>
				<polygon points="111.99,65.686 104.814,70.423 106.035,66.866 103.55,64.043 				"/>
			</g>
		</g>
	</g>
	<g>
		<g>
			<line fill="none" stroke="#000000" stroke-miterlimit="10" x1="39.656" y1="117.161" x2="106.341" y2="117.161"/>
			<g>
				<polygon points="111.99,117.161 104.03,120.414 105.919,117.161 104.03,113.91 				"/>
			</g>
		</g>
	</g>
	<g>
		<g>
			<line fill="none" stroke="#000000" stroke-miterlimit="10" x1="39.656" y1="172.12" x2="106.341" y2="172.12"/>
			<g>
				<polygon points="111.99,172.12 104.03,175.372 105.919,172.12 104.03,168.868 				"/>
			</g>
		</g>
	</g>
	<g>
		<g>
			<line fill="none" stroke="#000000" stroke-miterlimit="10" x1="260.825" y1="62.238" x2="343.675" y2="62.238"/>
			<g>
				<polygon points="349.323,62.238 341.364,65.49 343.253,62.238 341.364,58.986 				"/>
			</g>
		</g>
	</g>
	<g>
		<g>
			<line fill="none" stroke="#000000" stroke-miterlimit="10" x1="260.825" y1="117.911" x2="343.675" y2="117.911"/>
			<g>
				<polygon points="349.323,117.911 341.364,121.164 343.253,117.911 341.364,114.66 				"/>
			</g>
		</g>
	</g>
	<g>
		<g>
			<line fill="none" stroke="#000000" stroke-miterlimit="10" x1="260.825" y1="174.911" x2="343.675" y2="174.911"/>
			<g>
				<polygon points="349.323,174.911 341.364,178.163 343.253,174.911 341.364,171.659 				"/>
			</g>
		</g>
	</g>
</g>
<g>
	<path fill="#808285" d="M60.928,163.119c-0.831,0-1.349,0.525-1.555,1.574h1.992v0.504h-2.047l-0.008,0.223v0.25l0.008,0.176h1.809
		v0.504h-1.746c0.096,0.469,0.277,0.832,0.541,1.088c0.264,0.257,0.618,0.385,1.061,0.385c0.406,0,0.809-0.086,1.207-0.258v0.586
		c-0.38,0.169-0.793,0.254-1.238,0.254c-0.617,0-1.114-0.175-1.49-0.525s-0.625-0.86-0.744-1.529h-0.648v-0.504h0.594l-0.008-0.164
		v-0.172l0.008-0.312h-0.594v-0.504h0.641c0.102-0.68,0.342-1.209,0.723-1.59s0.879-0.57,1.496-0.57c0.523,0,1,0.126,1.43,0.379
		l-0.277,0.543C61.648,163.23,61.264,163.119,60.928,163.119z"/>
	<path fill="#808285" d="M64.717,164.837c0.602,0,1.075,0.149,1.42,0.447s0.518,0.707,0.518,1.225c0,0.591-0.188,1.055-0.564,1.391
		s-0.895,0.504-1.557,0.504c-0.643,0-1.134-0.103-1.473-0.309v-0.625c0.182,0.117,0.409,0.209,0.68,0.275s0.538,0.1,0.801,0.1
		c0.458,0,0.814-0.108,1.068-0.324c0.254-0.216,0.381-0.529,0.381-0.938c0-0.797-0.488-1.195-1.465-1.195
		c-0.248,0-0.578,0.038-0.992,0.113l-0.336-0.215l0.215-2.672h2.84v0.598h-2.285l-0.145,1.715
		C64.122,164.867,64.42,164.837,64.717,164.837z"/>
	<path fill="#808285" d="M71.292,165.462c0,0.987-0.156,1.724-0.467,2.211c-0.311,0.487-0.787,0.73-1.428,0.73
		c-0.615,0-1.082-0.249-1.402-0.748c-0.32-0.499-0.48-1.23-0.48-2.193c0-0.995,0.155-1.733,0.465-2.215s0.783-0.723,1.418-0.723
		c0.62,0,1.09,0.251,1.412,0.754S71.292,164.509,71.292,165.462z M68.17,165.462c0,0.831,0.098,1.436,0.293,1.814
		s0.506,0.568,0.934,0.568c0.432,0,0.746-0.192,0.939-0.576c0.194-0.384,0.291-0.986,0.291-1.807s-0.097-1.421-0.291-1.803
		s-0.507-0.572-0.939-0.572c-0.427,0-0.738,0.188-0.934,0.564S68.17,164.632,68.17,165.462z"/>
	<path fill="#808285" d="M75.866,165.462c0,0.987-0.156,1.724-0.467,2.211c-0.311,0.487-0.787,0.73-1.428,0.73
		c-0.615,0-1.082-0.249-1.402-0.748c-0.32-0.499-0.48-1.23-0.48-2.193c0-0.995,0.155-1.733,0.465-2.215s0.783-0.723,1.418-0.723
		c0.62,0,1.09,0.251,1.412,0.754S75.866,164.509,75.866,165.462z M72.745,165.462c0,0.831,0.098,1.436,0.293,1.814
		s0.506,0.568,0.934,0.568c0.432,0,0.746-0.192,0.939-0.576c0.194-0.384,0.291-0.986,0.291-1.807s-0.097-1.421-0.291-1.803
		s-0.507-0.572-0.939-0.572c-0.427,0-0.738,0.188-0.934,0.564S72.745,164.632,72.745,165.462z"/>
</g>
<g>
	<path fill="#808285" d="M60.928,108.496c-0.831,0-1.349,0.525-1.555,1.574h1.992v0.504h-2.047l-0.008,0.223v0.25l0.008,0.176h1.809
		v0.504h-1.746c0.096,0.469,0.277,0.832,0.541,1.088c0.264,0.257,0.618,0.385,1.061,0.385c0.406,0,0.809-0.086,1.207-0.258v0.586
		c-0.38,0.169-0.793,0.254-1.238,0.254c-0.617,0-1.114-0.175-1.49-0.525s-0.625-0.86-0.744-1.529h-0.648v-0.504h0.594l-0.008-0.164
		v-0.172l0.008-0.312h-0.594v-0.504h0.641c0.102-0.68,0.342-1.209,0.723-1.59s0.879-0.57,1.496-0.57c0.523,0,1,0.126,1.43,0.379
		l-0.277,0.543C61.648,108.607,61.264,108.496,60.928,108.496z"/>
	<path fill="#808285" d="M66.471,109.335c0,0.365-0.102,0.663-0.307,0.895s-0.494,0.387-0.869,0.465v0.031
		c0.458,0.057,0.798,0.203,1.02,0.438s0.332,0.542,0.332,0.922c0,0.544-0.189,0.963-0.566,1.256s-0.914,0.439-1.609,0.439
		c-0.302,0-0.579-0.022-0.83-0.068s-0.496-0.126-0.732-0.24v-0.617c0.248,0.122,0.511,0.216,0.791,0.279s0.545,0.096,0.795,0.096
		c0.987,0,1.48-0.387,1.48-1.16c0-0.693-0.544-1.039-1.633-1.039H63.78v-0.559h0.57c0.445,0,0.798-0.098,1.059-0.295
		s0.391-0.469,0.391-0.818c0-0.279-0.096-0.498-0.287-0.656s-0.451-0.238-0.779-0.238c-0.25,0-0.486,0.034-0.707,0.102
		s-0.474,0.193-0.758,0.375l-0.328-0.438c0.234-0.185,0.504-0.33,0.811-0.436s0.628-0.158,0.967-0.158
		c0.555,0,0.986,0.127,1.293,0.381S66.471,108.893,66.471,109.335z"/>
	<path fill="#808285" d="M71.292,110.839c0,0.987-0.156,1.724-0.467,2.211c-0.311,0.487-0.787,0.73-1.428,0.73
		c-0.615,0-1.082-0.249-1.402-0.748c-0.32-0.499-0.48-1.23-0.48-2.193c0-0.995,0.155-1.733,0.465-2.215s0.783-0.723,1.418-0.723
		c0.62,0,1.09,0.251,1.412,0.754S71.292,109.886,71.292,110.839z M68.17,110.839c0,0.831,0.098,1.436,0.293,1.814
		s0.506,0.568,0.934,0.568c0.432,0,0.746-0.192,0.939-0.576c0.194-0.384,0.291-0.986,0.291-1.807s-0.097-1.421-0.291-1.803
		s-0.507-0.572-0.939-0.572c-0.427,0-0.738,0.188-0.934,0.564S68.17,110.009,68.17,110.839z"/>
	<path fill="#808285" d="M75.866,110.839c0,0.987-0.156,1.724-0.467,2.211c-0.311,0.487-0.787,0.73-1.428,0.73
		c-0.615,0-1.082-0.249-1.402-0.748c-0.32-0.499-0.48-1.23-0.48-2.193c0-0.995,0.155-1.733,0.465-2.215s0.783-0.723,1.418-0.723
		c0.62,0,1.09,0.251,1.412,0.754S75.866,109.886,75.866,110.839z M72.745,110.839c0,0.831,0.098,1.436,0.293,1.814
		s0.506,0.568,0.934,0.568c0.432,0,0.746-0.192,0.939-0.576c0.194-0.384,0.291-0.986,0.291-1.807s-0.097-1.421-0.291-1.803
		s-0.507-0.572-0.939-0.572c-0.427,0-0.738,0.188-0.934,0.564S72.745,110.009,72.745,110.839z"/>
</g>
<g>
	<path fill="#808285" d="M66.624,46.295h1.609v0.539h-1.609v1.664h-0.543v-1.664h-1.602v-0.539h1.602v-1.672h0.543V46.295z"/>
	<path fill="#808285" d="M71.44,49.385h-0.633v-4.07c0-0.338,0.01-0.659,0.031-0.961c-0.055,0.055-0.116,0.112-0.184,0.172
		s-0.377,0.314-0.93,0.762l-0.344-0.445l1.512-1.168h0.547V49.385z"/>
</g>
<g>
	<path fill="#808285" d="M66.624,81.795h1.609v0.539h-1.609v1.664h-0.543v-1.664h-1.602v-0.539h1.602v-1.672h0.543V81.795z"/>
	<path fill="#808285" d="M71.44,84.885h-0.633v-4.07c0-0.338,0.01-0.659,0.031-0.961c-0.055,0.055-0.116,0.112-0.184,0.172
		s-0.377,0.314-0.93,0.762l-0.344-0.445l1.512-1.168h0.547V84.885z"/>
</g>
<g>
	<path fill="#808285" d="M299.795,167.266c0,0.914-0.231,1.633-0.693,2.156s-1.105,0.785-1.928,0.785
		c-0.841,0-1.49-0.257-1.947-0.771c-0.457-0.514-0.686-1.24-0.686-2.178c0-0.93,0.229-1.65,0.688-2.162s1.109-0.768,1.953-0.768
		c0.82,0,1.461,0.26,1.922,0.781S299.795,166.349,299.795,167.266z M295.245,167.266c0,0.773,0.165,1.36,0.494,1.76
		c0.33,0.399,0.808,0.6,1.436,0.6c0.633,0,1.111-0.199,1.434-0.598s0.484-0.986,0.484-1.762c0-0.768-0.161-1.351-0.482-1.748
		s-0.797-0.596-1.428-0.596c-0.633,0-1.114,0.2-1.443,0.6S295.245,166.502,295.245,167.266z"/>
	<path fill="#808285" d="M302.924,165.77c0.19,0,0.361,0.016,0.512,0.047l-0.09,0.602c-0.177-0.039-0.333-0.059-0.469-0.059
		c-0.346,0-0.643,0.141-0.889,0.422s-0.369,0.631-0.369,1.051v2.297h-0.648v-4.281h0.535l0.074,0.793h0.031
		c0.159-0.279,0.351-0.494,0.574-0.645C302.41,165.845,302.656,165.77,302.924,165.77z"/>
	<path fill="#808285" d="M307.74,165.848v0.41l-0.793,0.094c0.073,0.091,0.139,0.21,0.195,0.357
		c0.058,0.147,0.086,0.313,0.086,0.498c0,0.419-0.143,0.754-0.43,1.004c-0.286,0.25-0.68,0.375-1.18,0.375
		c-0.127,0-0.247-0.01-0.359-0.031c-0.275,0.146-0.414,0.33-0.414,0.551c0,0.117,0.049,0.204,0.145,0.26
		c0.097,0.056,0.262,0.084,0.496,0.084h0.758c0.464,0,0.82,0.098,1.068,0.293c0.249,0.195,0.373,0.479,0.373,0.852
		c0,0.474-0.189,0.835-0.57,1.084c-0.38,0.249-0.935,0.373-1.664,0.373c-0.56,0-0.991-0.104-1.295-0.312
		c-0.303-0.208-0.455-0.503-0.455-0.883c0-0.261,0.084-0.485,0.25-0.676c0.167-0.19,0.401-0.319,0.703-0.387
		c-0.109-0.05-0.201-0.126-0.275-0.23s-0.111-0.226-0.111-0.363c0-0.156,0.042-0.293,0.125-0.41c0.084-0.117,0.215-0.23,0.395-0.34
		c-0.221-0.091-0.401-0.246-0.541-0.465c-0.139-0.219-0.209-0.469-0.209-0.75c0-0.469,0.141-0.83,0.422-1.084
		s0.68-0.381,1.195-0.381c0.225,0,0.426,0.026,0.605,0.078H307.74z M304.326,170.848c0,0.231,0.098,0.407,0.293,0.527
		s0.476,0.18,0.84,0.18c0.545,0,0.947-0.081,1.209-0.244s0.393-0.384,0.393-0.662c0-0.231-0.071-0.393-0.215-0.482
		c-0.143-0.09-0.412-0.135-0.809-0.135h-0.777c-0.294,0-0.523,0.07-0.688,0.211S304.326,170.585,304.326,170.848z M304.678,167.219
		c0,0.299,0.085,0.526,0.254,0.68c0.17,0.154,0.405,0.23,0.707,0.23c0.633,0,0.949-0.307,0.949-0.922
		c0-0.643-0.32-0.965-0.961-0.965c-0.305,0-0.539,0.082-0.703,0.246S304.678,166.896,304.678,167.219z"/>
	<path fill="#808285" d="M311.252,170.129l-0.129-0.609h-0.031c-0.213,0.269-0.426,0.45-0.639,0.545
		c-0.212,0.095-0.477,0.143-0.795,0.143c-0.424,0-0.757-0.109-0.998-0.328c-0.24-0.219-0.361-0.53-0.361-0.934
		c0-0.865,0.691-1.318,2.074-1.359l0.727-0.023v-0.266c0-0.336-0.072-0.584-0.217-0.744s-0.375-0.24-0.693-0.24
		c-0.356,0-0.76,0.109-1.211,0.328l-0.199-0.496c0.211-0.115,0.442-0.205,0.693-0.27c0.252-0.065,0.504-0.098,0.756-0.098
		c0.511,0,0.889,0.113,1.135,0.34s0.369,0.59,0.369,1.09v2.922H311.252z M309.787,169.672c0.404,0,0.721-0.11,0.951-0.332
		c0.23-0.221,0.346-0.531,0.346-0.93v-0.387l-0.648,0.027c-0.516,0.018-0.887,0.098-1.115,0.24
		c-0.228,0.142-0.342,0.363-0.342,0.662c0,0.234,0.071,0.413,0.213,0.535C309.334,169.61,309.532,169.672,309.787,169.672z"/>
	<path fill="#808285" d="M315.998,170.129v-2.77c0-0.349-0.079-0.609-0.238-0.781c-0.158-0.172-0.407-0.258-0.746-0.258
		c-0.447,0-0.775,0.121-0.984,0.363c-0.208,0.242-0.312,0.642-0.312,1.199v2.246h-0.648v-4.281h0.527l0.105,0.586h0.031
		c0.133-0.211,0.319-0.375,0.559-0.49c0.24-0.116,0.507-0.174,0.801-0.174c0.516,0,0.904,0.125,1.164,0.373
		c0.261,0.249,0.391,0.646,0.391,1.193v2.793H315.998z"/>
	<path fill="#808285" d="M317.924,164.688c0-0.148,0.037-0.257,0.109-0.326c0.073-0.069,0.164-0.104,0.273-0.104
		c0.104,0,0.194,0.035,0.27,0.105c0.076,0.07,0.113,0.178,0.113,0.324s-0.037,0.254-0.113,0.326
		c-0.075,0.072-0.165,0.107-0.27,0.107c-0.109,0-0.2-0.036-0.273-0.107C317.961,164.942,317.924,164.833,317.924,164.688z
		 M318.627,170.129h-0.648v-4.281h0.648V170.129z"/>
	<path fill="#808285" d="M322.764,168.961c0,0.398-0.148,0.706-0.445,0.922s-0.713,0.324-1.25,0.324c-0.567,0-1.01-0.09-1.328-0.27
		v-0.602c0.206,0.104,0.427,0.187,0.662,0.246c0.236,0.06,0.463,0.09,0.682,0.09c0.339,0,0.6-0.054,0.781-0.162
		c0.183-0.108,0.273-0.272,0.273-0.494c0-0.167-0.072-0.309-0.217-0.428s-0.426-0.258-0.846-0.42
		c-0.398-0.148-0.682-0.278-0.85-0.389s-0.293-0.236-0.375-0.377s-0.123-0.309-0.123-0.504c0-0.349,0.143-0.625,0.426-0.826
		c0.284-0.202,0.674-0.303,1.168-0.303c0.461,0,0.912,0.094,1.352,0.281l-0.23,0.527c-0.43-0.177-0.818-0.266-1.168-0.266
		c-0.307,0-0.539,0.048-0.695,0.145s-0.234,0.229-0.234,0.398c0,0.115,0.029,0.212,0.088,0.293s0.153,0.158,0.283,0.23
		c0.131,0.073,0.381,0.178,0.75,0.316c0.508,0.185,0.852,0.371,1.029,0.559C322.675,168.441,322.764,168.677,322.764,168.961z"/>
	<path fill="#808285" d="M325.627,170.207c-0.633,0-1.132-0.192-1.498-0.578c-0.365-0.386-0.549-0.92-0.549-1.605
		c0-0.69,0.17-1.238,0.51-1.645s0.797-0.609,1.369-0.609c0.537,0,0.961,0.176,1.273,0.529s0.469,0.818,0.469,1.396v0.41h-2.949
		c0.014,0.502,0.141,0.884,0.381,1.145c0.241,0.261,0.58,0.391,1.018,0.391c0.461,0,0.917-0.097,1.367-0.289v0.578
		c-0.229,0.099-0.445,0.17-0.65,0.213C326.163,170.186,325.916,170.207,325.627,170.207z M325.451,166.312
		c-0.344,0-0.617,0.112-0.822,0.336c-0.204,0.224-0.324,0.534-0.361,0.93h2.238c0-0.409-0.091-0.722-0.273-0.939
		C326.051,166.421,325.79,166.312,325.451,166.312z"/>
</g>
<g>
	<path fill="#808285" d="M289.504,112.576v-5.711h0.664v5.711H289.504z"/>
	<path fill="#808285" d="M297.094,112.576v-2.785c0-0.341-0.073-0.597-0.219-0.768s-0.373-0.256-0.68-0.256
		c-0.404,0-0.702,0.116-0.895,0.348s-0.289,0.588-0.289,1.07v2.391h-0.648v-2.785c0-0.341-0.073-0.597-0.219-0.768
		s-0.374-0.256-0.684-0.256c-0.406,0-0.704,0.122-0.893,0.365s-0.283,0.643-0.283,1.197v2.246h-0.648v-4.281h0.527l0.105,0.586
		h0.031c0.123-0.208,0.295-0.371,0.518-0.488s0.472-0.176,0.748-0.176c0.669,0,1.107,0.242,1.312,0.727h0.031
		c0.127-0.224,0.312-0.401,0.555-0.531s0.518-0.195,0.828-0.195c0.484,0,0.847,0.125,1.088,0.373s0.361,0.646,0.361,1.193v2.793
		H297.094z"/>
	<path fill="#808285" d="M301.07,112.654c-0.278,0-0.533-0.052-0.763-0.154s-0.424-0.261-0.58-0.475h-0.047
		c0.031,0.25,0.047,0.487,0.047,0.711v1.762h-0.648v-6.203h0.527l0.09,0.586h0.031c0.167-0.234,0.361-0.404,0.582-0.508
		s0.475-0.156,0.761-0.156c0.568,0,1.006,0.194,1.314,0.582s0.463,0.932,0.463,1.633c0,0.703-0.156,1.249-0.471,1.639
		C302.063,112.459,301.628,112.654,301.07,112.654z M300.977,108.767c-0.438,0-0.754,0.121-0.949,0.363s-0.295,0.627-0.301,1.156
		v0.145c0,0.602,0.1,1.032,0.301,1.291c0.201,0.259,0.522,0.389,0.965,0.389c0.37,0,0.66-0.149,0.869-0.449
		c0.21-0.299,0.314-0.712,0.314-1.238c0-0.534-0.104-0.943-0.314-1.229C301.652,108.91,301.357,108.767,300.977,108.767z"/>
	<path fill="#808285" d="M304.629,112.576h-0.648v-6.078h0.648V112.576z"/>
	<path fill="#808285" d="M307.812,112.654c-0.633,0-1.132-0.192-1.498-0.578c-0.365-0.386-0.549-0.92-0.549-1.605
		c0-0.69,0.17-1.238,0.51-1.645s0.797-0.609,1.369-0.609c0.537,0,0.961,0.176,1.273,0.529s0.469,0.818,0.469,1.396v0.41h-2.949
		c0.014,0.502,0.141,0.884,0.381,1.145c0.241,0.261,0.58,0.391,1.018,0.391c0.461,0,0.917-0.097,1.367-0.289v0.578
		c-0.229,0.099-0.445,0.17-0.65,0.213C308.349,112.632,308.102,112.654,307.812,112.654z M307.637,108.759
		c-0.344,0-0.617,0.112-0.822,0.336c-0.204,0.224-0.324,0.534-0.361,0.93h2.238c0-0.409-0.091-0.722-0.273-0.939
		C308.236,108.868,307.976,108.759,307.637,108.759z"/>
	<path fill="#808285" d="M315.949,112.576v-2.785c0-0.341-0.072-0.597-0.219-0.768c-0.146-0.17-0.372-0.256-0.68-0.256
		c-0.403,0-0.701,0.116-0.895,0.348c-0.192,0.232-0.289,0.588-0.289,1.07v2.391h-0.648v-2.785c0-0.341-0.072-0.597-0.219-0.768
		c-0.146-0.17-0.373-0.256-0.684-0.256c-0.406,0-0.703,0.122-0.893,0.365c-0.188,0.244-0.283,0.643-0.283,1.197v2.246h-0.648v-4.281
		h0.527l0.105,0.586h0.031c0.123-0.208,0.295-0.371,0.518-0.488s0.473-0.176,0.748-0.176c0.67,0,1.107,0.242,1.312,0.727h0.031
		c0.128-0.224,0.312-0.401,0.555-0.531s0.519-0.195,0.828-0.195c0.484,0,0.848,0.125,1.088,0.373
		c0.241,0.249,0.361,0.646,0.361,1.193v2.793H315.949z"/>
	<path fill="#808285" d="M319.742,112.654c-0.633,0-1.132-0.192-1.498-0.578c-0.365-0.386-0.549-0.92-0.549-1.605
		c0-0.69,0.17-1.238,0.51-1.645s0.797-0.609,1.369-0.609c0.537,0,0.961,0.176,1.273,0.529s0.469,0.818,0.469,1.396v0.41h-2.949
		c0.014,0.502,0.141,0.884,0.381,1.145c0.241,0.261,0.58,0.391,1.018,0.391c0.461,0,0.917-0.097,1.367-0.289v0.578
		c-0.229,0.099-0.445,0.17-0.65,0.213C320.278,112.632,320.031,112.654,319.742,112.654z M319.566,108.759
		c-0.344,0-0.617,0.112-0.822,0.336c-0.204,0.224-0.324,0.534-0.361,0.93h2.238c0-0.409-0.091-0.722-0.273-0.939
		C320.166,108.868,319.905,108.759,319.566,108.759z"/>
	<path fill="#808285" d="M325.352,112.576v-2.77c0-0.349-0.079-0.609-0.238-0.781c-0.158-0.172-0.407-0.258-0.746-0.258
		c-0.447,0-0.775,0.121-0.984,0.363c-0.208,0.242-0.312,0.642-0.312,1.199v2.246h-0.648v-4.281h0.527l0.105,0.586h0.031
		c0.133-0.211,0.319-0.375,0.559-0.49c0.24-0.116,0.507-0.174,0.801-0.174c0.516,0,0.904,0.125,1.164,0.373
		c0.261,0.249,0.391,0.646,0.391,1.193v2.793H325.352z"/>
	<path fill="#808285" d="M328.715,112.119c0.115,0,0.226-0.009,0.332-0.025c0.107-0.017,0.191-0.034,0.254-0.053v0.496
		c-0.07,0.034-0.174,0.062-0.311,0.084s-0.26,0.033-0.369,0.033c-0.828,0-1.242-0.437-1.242-1.309v-2.547h-0.613v-0.312l0.613-0.27
		l0.273-0.914h0.375v0.992h1.242v0.504h-1.242v2.52c0,0.258,0.062,0.456,0.184,0.594
		C328.334,112.049,328.502,112.119,328.715,112.119z"/>
</g>
<g>
	<path fill="#808285" d="M306.502,57.326h-0.664v-5.711h3.184v0.59h-2.52v2.09h2.367v0.59h-2.367V57.326z"/>
	<path fill="#808285" d="M309.814,51.884c0-0.148,0.037-0.257,0.109-0.326c0.073-0.069,0.164-0.104,0.273-0.104
		c0.104,0,0.194,0.035,0.27,0.105c0.076,0.07,0.113,0.178,0.113,0.324s-0.037,0.254-0.113,0.326
		c-0.075,0.072-0.165,0.107-0.27,0.107c-0.109,0-0.2-0.036-0.273-0.107C309.852,52.139,309.814,52.03,309.814,51.884z
		 M310.518,57.326h-0.648v-4.281h0.648V57.326z"/>
	<path fill="#808285" d="M312.924,55.134l-1.488-2.09h0.738l1.129,1.641l1.125-1.641h0.73l-1.488,2.09l1.566,2.191h-0.734
		l-1.199-1.734l-1.211,1.734h-0.734L312.924,55.134z"/>
</g>
<g>
</g>
<g>
</g>
<g>
</g>
<g>
</g>
<g>
</g>
<g>
</g>
<g>
</g>
</svg>
