<?xml version="1.0" encoding="utf-8"?>
<!-- Generator: Adobe Illustrator 16.0.0, SVG Export Plug-In . SVG Version: 6.00 Build 0)  -->
<!DOCTYPE svg PUBLIC "-//W3C//DTD SVG 1.1//EN" "http://www.w3.org/Graphics/SVG/1.1/DTD/svg11.dtd">
<svg version="1.1" id="Layer_1" xmlns="http://www.w3.org/2000/svg" xmlns:xlink="http://www.w3.org/1999/xlink" x="0px" y="0px"
	 width="200px" height="100px" viewBox="0 0 200 100" enable-background="new 0 0 200 100" xml:space="preserve">
<g>
	<path fill="#14152D" d="M8.535,78.785v-59.87H21.23v49.388h24.284v10.482H8.535z"/>
	<path fill="#14152D" d="M91.256,62.16c0,5.404-1.945,9.664-5.835,12.775c-3.891,3.113-9.303,4.67-16.237,4.67
		c-6.388,0-12.04-1.201-16.954-3.605V64.207c4.04,1.803,7.459,3.072,10.258,3.809s5.358,1.105,7.679,1.105
		c2.785,0,4.92-0.533,6.409-1.598c1.488-1.064,2.232-2.646,2.232-4.75c0-1.174-0.328-2.217-0.983-3.133
		c-0.655-0.914-1.618-1.795-2.887-2.641s-3.856-2.197-7.76-4.055c-3.659-1.72-6.402-3.371-8.231-4.955
		c-1.83-1.583-3.29-3.426-4.382-5.528c-1.092-2.102-1.638-4.559-1.638-7.371c0-5.296,1.795-9.46,5.385-12.49
		c3.59-3.03,8.552-4.545,14.886-4.545c3.112,0,6.081,0.369,8.907,1.105c2.826,0.737,5.781,1.775,8.866,3.112l-4.095,9.869
		c-3.194-1.31-5.835-2.225-7.924-2.744c-2.088-0.518-4.143-0.778-6.163-0.778c-2.402,0-4.245,0.56-5.528,1.679
		c-1.284,1.12-1.925,2.58-1.925,4.382c0,1.12,0.259,2.096,0.778,2.928c0.518,0.833,1.344,1.638,2.478,2.416
		c1.132,0.778,3.815,2.177,8.047,4.197c5.596,2.676,9.432,5.358,11.507,8.047C90.218,54.959,91.256,58.256,91.256,62.16z"/>
</g>
<g>
	<path fill="#5E62AA" d="M183.812,62.758c1.102-4.713,1.652-9.426,1.652-14.141c0-4.713-0.551-9.426-1.652-14.141
		c-1.102-4.713-2.885-9.229-5.352-13.546l6.078-2.511c2.775,4.538,4.924,9.251,6.443,14.141s2.279,10.242,2.279,16.057
		s-0.76,11.168-2.279,16.057c-1.52,4.891-3.668,9.604-6.443,14.141l-6.078-2.51C180.928,71.986,182.711,67.471,183.812,62.758z"/>
</g>
<g>
	<path fill="#5E62AA" d="M101.625,64.674c-1.52-4.889-2.279-10.242-2.279-16.057s0.76-11.167,2.279-16.057
		c1.521-4.89,3.668-9.603,6.443-14.141l6.079,2.511c-2.424,4.318-4.186,8.833-5.286,13.546c-1.102,4.714-1.652,9.427-1.652,14.141
		c0,4.715,0.551,9.428,1.652,14.141c1.101,4.713,2.862,9.229,5.286,13.547l-6.079,2.51
		C105.293,74.277,103.146,69.564,101.625,64.674z"/>
</g>
<g>
	<path fill="#14152D" d="M174.09,48.276c0,9.857-2.805,17.404-8.416,22.646c-5.609,5.242-13.712,7.863-24.305,7.863h-16.953V18.914
		h18.797c9.773,0,17.363,2.58,22.769,7.74C171.387,31.814,174.09,39.021,174.09,48.276z M160.903,48.604
		c0-12.858-5.679-19.288-17.036-19.288h-6.756v38.985h5.445C154.787,68.301,160.903,61.736,160.903,48.604z"/>
</g>
</svg>
