<svg xmlns="http://www.w3.org/2000/svg" viewBox="0 0 130 184.49"><title>Asset 5</title><g id="Layer_2" data-name="Layer 2"><g id="Layer_1-2" data-name="Layer 1"><rect y="70.51" width="47.97" height="47.97" style="fill:#fff"/><path d="M122,118.48H82v-48h48v40A8,8,0,0,1,122,118.48Z" style="fill:#fff"/><path d="M129.67,48H0V8A8,8,0,0,1,8,0H121.67a8,8,0,0,1,8,8Z" style="fill:#fff"/><rect x="81.8" y="51.88" width="47.97" height="14.83" style="fill:#fff"/><rect y="51.88" width="47.97" height="14.83" style="fill:#fff"/><rect x="52.08" y="70.8" width="26.03" height="47.97" style="fill:#fff"/><path d="M121.77,138.67h-32a8,8,0,0,1-8-8v-8.15h48v8.15A8,8,0,0,1,121.77,138.67Z" style="fill:#fff"/><path d="M40,138.67H8a8,8,0,0,1-8-8v-8.15H48v8.15A8,8,0,0,1,40,138.67Z" style="fill:#fff"/><path d="M13.17,176.93V179q0,5.49-5.18,5.49H5.21Q0,184.49,0,179V157.66q0-5.49,5.18-5.49H8q5.18,0,5.18,5.49v3.65H8.85V158a1.69,1.69,0,0,0-1.94-1.89H6.06q-1.71,0-1.71,1.89v20.71q0,1.89,1.71,1.89H7.14q1.71,0,1.71-1.89v-1.76Z" style="fill:#fff"/><path d="M21.55,184.49q-5.22,0-5.22-5.49V157.71q0-5.54,5.18-5.54h4.14q5.18,0,5.18,5.54V179q0,5.49-5.22,5.49Zm1-3.92h2.2q1.71,0,1.71-1.89V158a1.69,1.69,0,0,0-1.93-1.89h-2A1.67,1.67,0,0,0,20.65,158v20.71A1.69,1.69,0,0,0,22.58,180.57Z" style="fill:#fff"/><path d="M43.42,171.17l4-19H52.2v32.32H47.88l.45-21.15-3.24,15.3H41.75l-3.24-15.3L39,184.49H34.64V152.17h4.77Z" style="fill:#fff"/><path d="M70.29,152.17v26.2q0,6.12-5.22,6.12H61.42q-5.18,0-5.18-6.17V152.17h4.32v26.29q0,2.12,1.89,2.12h1.76q1.75,0,1.75-2.12V152.17Z" style="fill:#fff"/><path d="M83.3,167.79V152.17h4.32v32.32H83.3v-6.44l-4.64-14.72v21.15H74.34V152.17h4.32Z" style="fill:#fff"/><path d="M91.67,184.49V152.17H96v32.32Z" style="fill:#fff"/><path d="M113,176.93V179q0,5.49-5.18,5.49H105q-5.18,0-5.18-5.49V157.66q0-5.49,5.18-5.49h2.79q5.18,0,5.18,5.49v3.65h-4.32V158a1.69,1.69,0,0,0-1.94-1.89h-.85q-1.71,0-1.71,1.89v20.71q0,1.89,1.71,1.89h1.08q1.71,0,1.71-1.89v-1.76Z" style="fill:#fff"/><path d="M120.43,184.49h-4.32V157.71q0-5.54,5.18-5.54h3.24q5.18,0,5.18,5.54v26.78h-4.32V172.65h-5Zm5-15.75V158a1.67,1.67,0,0,0-1.89-1.89h-1.17a1.67,1.67,0,0,0-1.89,1.89v10.76Z" style="fill:#fff"/></g></g></svg>