<svg xmlns="http://www.w3.org/2000/svg" viewBox="0 0 770 205.62"><title>Asset 7</title><g id="Layer_2" data-name="Layer 2"><g id="Layer_1-2" data-name="Layer 1"><rect width="770" height="205.62" style="fill:#be1622"/><rect x="30" y="102.58" width="47.97" height="47.97" style="fill:#fff"/><path d="M152,150.55H112v-48h48v40A8,8,0,0,1,152,150.55Z" style="fill:#fff"/><path d="M159.67,80H30v-40a8,8,0,0,1,8-8H151.67a8,8,0,0,1,8,8Z" style="fill:#fff"/><rect x="111.8" y="83.95" width="47.97" height="14.83" style="fill:#fff"/><rect x="30" y="83.95" width="47.97" height="14.83" style="fill:#fff"/><rect x="82.08" y="102.86" width="26.03" height="47.97" style="fill:#fff"/><path d="M151.77,170.73h-32a8,8,0,0,1-8-8v-8.15h48v8.15A8,8,0,0,1,151.77,170.73Z" style="fill:#fff"/><path d="M70,170.73H38a8,8,0,0,1-8-8v-8.15H78v8.15A8,8,0,0,1,70,170.73Z" style="fill:#fff"/><path d="M240,139.28v8.89q0,23.56-22.21,23.56h-12q-22.21,0-22.21-23.56V56.62q0-23.56,22.21-23.56h12Q240,33.06,240,56.62V72.27H221.46V58q0-8.11-8.31-8.11h-3.67q-7.34,0-7.34,8.11v88.84q0,8.11,7.34,8.11h4.64q7.33,0,7.34-8.11v-7.53Z" style="fill:#fff"/><path d="M275.92,171.73q-22.4,0-22.4-23.56V56.82q0-23.76,22.21-23.76H293.5q22.21,0,22.21,23.76v91.35q0,23.56-22.4,23.56Zm4.45-16.8h9.46q7.34,0,7.34-8.11V58q0-8.11-8.3-8.11h-8.69q-8.11,0-8.11,8.11v88.84Q272.06,154.93,280.36,154.93Z" style="fill:#fff"/><path d="M369.78,114.56,387,33.06h20.47V171.73H388.9L390.83,81l-13.91,65.66h-14.3L348.73,81l1.93,90.77H332.11V33.06h20.47Z" style="fill:#fff"/><path d="M485.07,33.06v112.4q0,26.27-22.4,26.26H447q-22.21,0-22.21-26.46V33.06h18.54V145.85q0,9.08,8.11,9.08H459q7.53,0,7.53-9.08V33.06Z" style="fill:#fff"/><path d="M540.88,100.08v-67h18.54V171.73H540.88V144.11L521,81v90.77H502.45V33.06H521Z" style="fill:#fff"/><path d="M576.81,171.73V33.06h18.54V171.73Z" style="fill:#fff"/><path d="M668.16,139.28v8.89q0,23.56-22.21,23.56H634q-22.21,0-22.21-23.56V56.62q0-23.56,22.21-23.56h12q22.21,0,22.21,23.56V72.27H649.61V58q0-8.11-8.31-8.11h-3.67q-7.34,0-7.34,8.11v88.84q0,8.11,7.34,8.11h4.64q7.33,0,7.34-8.11v-7.53Z" style="fill:#fff"/><path d="M700.21,171.73H681.67V56.82q0-23.76,22.21-23.76h13.9Q740,33.06,740,56.82V171.73H721.46V120.94H700.21Zm21.25-67.6V58q0-8.11-8.11-8.11h-5q-8.11,0-8.11,8.11v46.16Z" style="fill:#fff"/></g></g></svg>