<svg xmlns="http://www.w3.org/2000/svg" viewBox="0 0 200 200"><title>nolabelAsset 8</title><g id="Layer_2" data-name="Layer 2"><g id="Layer_1-2" data-name="Layer 1"><rect width="200" height="200" style="fill:#f64747"/><rect x="35" y="99.27" width="47.97" height="47.97" style="fill:#fff"/><path d="M157,147.24H117v-48h48v40A8,8,0,0,1,157,147.24Z" style="fill:#fff"/><path d="M164.67,76.72H35v-40a8,8,0,0,1,8-8H156.67a8,8,0,0,1,8,8Z" style="fill:#fff"/><rect x="116.8" y="80.64" width="47.97" height="14.83" style="fill:#fff"/><rect x="35" y="80.64" width="47.97" height="14.83" style="fill:#fff"/><rect x="87.08" y="99.55" width="26.03" height="47.97" style="fill:#fff"/><path d="M156.77,167.42h-32a8,8,0,0,1-8-8v-8.15h48v8.15A8,8,0,0,1,156.77,167.42Z" style="fill:#fff"/><path d="M75,167.42H43a8,8,0,0,1-8-8v-8.15H83v8.15A8,8,0,0,1,75,167.42Z" style="fill:#fff"/></g></g></svg>